G04 Layer: TopSilkLayer*
G04 EasyEDA v6.3.53, 2020-08-15T11:31:24+02:00*
G04 Gerber Generator version 0.2*
G04 Scale: 100 percent, Rotated: No, Reflected: No *
G04 Dimensions in millimeters *
G04 leading zeros omitted , absolute positions ,3 integer and 3 decimal *
%FSLAX33Y33*%
%MOMM*%
G90*
G71D02*

%ADD10C,0.254000*%
%ADD13C,0.499999*%
%ADD27C,0.203200*%
%ADD28C,0.202999*%
%ADD29C,0.152400*%
%ADD30C,0.100000*%

%LPD*%
G54D10*
G01X31115Y11734D02*
G01X23495Y11734D01*
G01X23495Y11734D02*
G01X23495Y16814D01*
G01X31115Y16824D02*
G01X31115Y18364D01*
G01X23495Y16824D02*
G01X23495Y18364D01*
G01X27735Y12474D02*
G01X30334Y12474D01*
G01X30334Y16874D01*
G01X24295Y16874D01*
G01X24295Y12474D01*
G01X26824Y12474D01*
G01X27735Y12474D02*
G01X27735Y11774D01*
G01X26835Y12474D02*
G01X26835Y11774D01*
G01X27735Y12074D02*
G01X30735Y12074D01*
G01X30735Y16474D01*
G01X30735Y17304D01*
G01X30735Y16454D01*
G01X26824Y12074D02*
G01X23874Y12074D01*
G01X23874Y16474D01*
G01X23874Y17294D01*
G01X31115Y11734D02*
G01X31115Y16814D01*
G01X31115Y18364D02*
G01X23495Y18364D01*
G01X30735Y17304D02*
G01X23885Y17304D01*
G01X31117Y17804D02*
G01X23497Y17804D01*
G01X31115Y2463D02*
G01X23495Y2463D01*
G01X23495Y2463D02*
G01X23495Y7543D01*
G01X31115Y7553D02*
G01X31115Y9093D01*
G01X23495Y7553D02*
G01X23495Y9093D01*
G01X27735Y3203D02*
G01X30334Y3203D01*
G01X30334Y7603D01*
G01X24295Y7603D01*
G01X24295Y3203D01*
G01X26824Y3203D01*
G01X27735Y3203D02*
G01X27735Y2503D01*
G01X26835Y3203D02*
G01X26835Y2503D01*
G01X27735Y2803D02*
G01X30735Y2803D01*
G01X30735Y7203D01*
G01X30735Y8033D01*
G01X30735Y7183D01*
G01X26824Y2803D02*
G01X23874Y2803D01*
G01X23874Y7203D01*
G01X23874Y8023D01*
G01X31115Y2463D02*
G01X31115Y7543D01*
G01X31115Y9093D02*
G01X23495Y9093D01*
G01X30735Y8033D02*
G01X23885Y8033D01*
G01X31117Y8533D02*
G01X23497Y8533D01*
G01X31115Y21132D02*
G01X23495Y21132D01*
G01X23495Y21132D02*
G01X23495Y26212D01*
G01X31115Y26222D02*
G01X31115Y27762D01*
G01X23495Y26222D02*
G01X23495Y27762D01*
G01X27735Y21872D02*
G01X30334Y21872D01*
G01X30334Y26272D01*
G01X24295Y26272D01*
G01X24295Y21872D01*
G01X26824Y21872D01*
G01X27735Y21872D02*
G01X27735Y21172D01*
G01X26835Y21872D02*
G01X26835Y21172D01*
G01X27735Y21472D02*
G01X30735Y21472D01*
G01X30735Y25872D01*
G01X30735Y26702D01*
G01X30735Y25852D01*
G01X26824Y21472D02*
G01X23874Y21472D01*
G01X23874Y25872D01*
G01X23874Y26692D01*
G01X31115Y21132D02*
G01X31115Y26212D01*
G01X31115Y27762D02*
G01X23495Y27762D01*
G01X30735Y26702D02*
G01X23885Y26702D01*
G01X31117Y27202D02*
G01X23497Y27202D01*
G01X31115Y30784D02*
G01X23495Y30784D01*
G01X23495Y30784D02*
G01X23495Y35864D01*
G01X31115Y35874D02*
G01X31115Y37414D01*
G01X23495Y35874D02*
G01X23495Y37414D01*
G01X27735Y31524D02*
G01X30334Y31524D01*
G01X30334Y35924D01*
G01X24295Y35924D01*
G01X24295Y31524D01*
G01X26824Y31524D01*
G01X27735Y31524D02*
G01X27735Y30824D01*
G01X26835Y31524D02*
G01X26835Y30824D01*
G01X27735Y31124D02*
G01X30735Y31124D01*
G01X30735Y35524D01*
G01X30735Y36354D01*
G01X30735Y35504D01*
G01X26824Y31124D02*
G01X23874Y31124D01*
G01X23874Y35524D01*
G01X23874Y36344D01*
G01X31115Y30784D02*
G01X31115Y35864D01*
G01X31115Y37414D02*
G01X23495Y37414D01*
G01X30735Y36354D02*
G01X23885Y36354D01*
G01X31117Y36854D02*
G01X23497Y36854D01*
G01X19625Y-3315D02*
G01X10625Y-3315D01*
G01X10625Y-3315D02*
G01X10625Y10684D01*
G01X19625Y-15D02*
G01X10625Y-15D01*
G01X18325Y64D02*
G01X18325Y10684D01*
G01X11926Y64D02*
G01X11926Y10684D01*
G01X10625Y10684D02*
G01X13217Y10684D01*
G01X17033Y10684D02*
G01X19625Y10684D01*
G01X19625Y-3315D02*
G01X19625Y5800D01*
G01X19625Y9568D02*
G01X19625Y10684D01*
G01X34163Y32562D02*
G01X37211Y32562D01*
G01X37211Y11480D01*
G01X34163Y11480D01*
G01X34163Y32562D01*
G01X74422Y11734D02*
G01X71374Y11734D01*
G01X71374Y32816D01*
G01X74422Y32816D01*
G01X74422Y11734D01*
G01X95567Y58343D02*
G01X95567Y55549D01*
G01X85471Y55549D01*
G01X85471Y58343D01*
G01X95567Y58343D01*
G01X4950Y29327D02*
G01X4950Y34527D01*
G01X4950Y34527D02*
G01X7749Y34527D01*
G01X7749Y29327D02*
G01X7749Y34527D01*
G01X4950Y29327D02*
G01X7749Y29327D01*
G01X4950Y30287D02*
G01X7749Y30287D01*
G01X7749Y19795D02*
G01X7749Y14595D01*
G01X7749Y14595D02*
G01X4950Y14595D01*
G01X4950Y19795D02*
G01X4950Y14595D01*
G01X7749Y19795D02*
G01X4950Y19795D01*
G01X7749Y18836D02*
G01X4950Y18836D01*
G54D27*
G01X85217Y14401D02*
G01X83312Y14401D01*
G01X83312Y11861D01*
G01X96012Y11861D01*
G01X96012Y14401D01*
G54D28*
G01X96012Y14401D02*
G01X85217Y14401D01*
G54D10*
G01X18183Y31191D02*
G01X18183Y29845D01*
G01X17548Y30505D02*
G01X18793Y30505D01*
G01X12296Y17932D02*
G01X12296Y19278D01*
G01X12931Y18618D02*
G01X11686Y18618D01*
G01X67665Y7035D02*
G01X67665Y33045D01*
G01X63652Y35026D01*
G01X63652Y40030D01*
G01X40665Y40030D01*
G01X40665Y7035D01*
G01X43662Y4038D02*
G01X64668Y4038D01*
G01X20321Y38436D02*
G01X10920Y38436D01*
G01X10920Y42436D01*
G01X20321Y42436D01*
G01X20321Y38436D01*
G01X14312Y56606D02*
G01X19813Y56606D01*
G01X19813Y52206D01*
G01X16112Y52206D01*
G01X13412Y56606D02*
G01X10412Y56606D01*
G01X10412Y52206D01*
G01X14012Y52206D01*
G01X14312Y56206D02*
G01X14312Y56906D01*
G01X13412Y56206D02*
G01X13412Y56906D01*
G01X13412Y56206D02*
G01X10813Y56206D01*
G01X10813Y52606D01*
G01X14012Y52606D01*
G01X14012Y51806D01*
G01X16112Y51806D01*
G01X16112Y52606D01*
G01X19312Y52606D01*
G01X19312Y56206D01*
G01X14312Y56206D01*
G01X17653Y51866D02*
G01X20152Y51866D01*
G01X10033Y56946D02*
G01X10033Y51866D01*
G01X12573Y51866D01*
G01X12572Y50316D02*
G01X17653Y50316D01*
G01X17653Y51866D02*
G01X17653Y50326D01*
G01X12573Y51866D02*
G01X12573Y50326D01*
G01X20193Y56946D02*
G01X20193Y51866D01*
G01X10033Y56946D02*
G01X20193Y56946D01*
G01X74127Y56146D02*
G01X74127Y61646D01*
G01X78526Y61646D01*
G01X78526Y57946D01*
G01X74127Y55246D02*
G01X74127Y52246D01*
G01X78526Y52246D01*
G01X78526Y55846D01*
G01X74527Y56146D02*
G01X73827Y56146D01*
G01X74526Y55246D02*
G01X73826Y55246D01*
G01X74526Y55246D02*
G01X74526Y52646D01*
G01X78127Y52646D01*
G01X78127Y55846D01*
G01X78926Y55846D01*
G01X78926Y57946D01*
G01X78127Y57946D01*
G01X78127Y61146D01*
G01X74526Y61146D01*
G01X74526Y56146D01*
G01X78867Y59486D02*
G01X78867Y61986D01*
G01X73787Y51866D02*
G01X78867Y51866D01*
G01X78867Y54406D01*
G01X80416Y54406D02*
G01X80416Y59486D01*
G01X78867Y59486D02*
G01X80407Y59486D01*
G01X78867Y54406D02*
G01X80407Y54406D01*
G01X73787Y62026D02*
G01X78867Y62026D01*
G01X73787Y51866D02*
G01X73787Y62026D01*
G54D29*
G01X14846Y8696D02*
G01X14328Y8696D01*
G01X14274Y8229D01*
G01X14328Y8280D01*
G01X14483Y8333D01*
G01X14640Y8333D01*
G01X14795Y8280D01*
G01X14899Y8178D01*
G01X14950Y8021D01*
G01X14950Y7917D01*
G01X14899Y7762D01*
G01X14795Y7658D01*
G01X14640Y7607D01*
G01X14483Y7607D01*
G01X14328Y7658D01*
G01X14274Y7708D01*
G01X14224Y7813D01*
G01X15293Y8696D02*
G01X15709Y7607D01*
G01X16126Y8696D02*
G01X15709Y7607D01*
G01X20845Y5135D02*
G01X20792Y5240D01*
G01X20688Y5344D01*
G01X20586Y5394D01*
G01X20378Y5394D01*
G01X20274Y5344D01*
G01X20170Y5240D01*
G01X20116Y5135D01*
G01X20066Y4978D01*
G01X20066Y4719D01*
G01X20116Y4564D01*
G01X20170Y4460D01*
G01X20274Y4356D01*
G01X20378Y4305D01*
G01X20586Y4305D01*
G01X20688Y4356D01*
G01X20792Y4460D01*
G01X20845Y4564D01*
G01X20845Y4719D01*
G01X20586Y4719D02*
G01X20845Y4719D01*
G01X21188Y5394D02*
G01X21188Y4305D01*
G01X21188Y5394D02*
G01X21915Y4305D01*
G01X21915Y5394D02*
G01X21915Y4305D01*
G01X22258Y5394D02*
G01X22258Y4305D01*
G01X22258Y5394D02*
G01X22621Y5394D01*
G01X22778Y5344D01*
G01X22882Y5240D01*
G01X22933Y5135D01*
G01X22987Y4978D01*
G01X22987Y4719D01*
G01X22933Y4564D01*
G01X22882Y4460D01*
G01X22778Y4356D01*
G01X22621Y4305D01*
G01X22258Y4305D01*
G01X69977Y9077D02*
G01X69977Y7988D01*
G01X69977Y9077D02*
G01X70393Y7988D01*
G01X70807Y9077D02*
G01X70393Y7988D01*
G01X70807Y9077D02*
G01X70807Y7988D01*
G01X71567Y9077D02*
G01X71150Y7988D01*
G01X71567Y9077D02*
G01X71983Y7988D01*
G01X71307Y8351D02*
G01X71826Y8351D01*
G01X73103Y8818D02*
G01X73052Y8923D01*
G01X72948Y9027D01*
G01X72844Y9077D01*
G01X72636Y9077D01*
G01X72532Y9027D01*
G01X72428Y8923D01*
G01X72377Y8818D01*
G01X72326Y8661D01*
G01X72326Y8402D01*
G01X72377Y8247D01*
G01X72428Y8143D01*
G01X72532Y8039D01*
G01X72636Y7988D01*
G01X72844Y7988D01*
G01X72948Y8039D01*
G01X73052Y8143D01*
G01X73103Y8247D01*
G01X73446Y9077D02*
G01X73446Y7988D01*
G01X74175Y9077D02*
G01X74175Y7988D01*
G01X73446Y8559D02*
G01X74175Y8559D01*
G01X74828Y9077D02*
G01X74726Y9027D01*
G01X74622Y8923D01*
G01X74569Y8818D01*
G01X74518Y8661D01*
G01X74518Y8402D01*
G01X74569Y8247D01*
G01X74622Y8143D01*
G01X74726Y8039D01*
G01X74828Y7988D01*
G01X75036Y7988D01*
G01X75140Y8039D01*
G01X75244Y8143D01*
G01X75298Y8247D01*
G01X75349Y8402D01*
G01X75349Y8661D01*
G01X75298Y8818D01*
G01X75244Y8923D01*
G01X75140Y9027D01*
G01X75036Y9077D01*
G01X74828Y9077D01*
G01X32766Y10347D02*
G01X32766Y9258D01*
G01X32766Y10347D02*
G01X33129Y10347D01*
G01X33286Y10297D01*
G01X33388Y10193D01*
G01X33441Y10088D01*
G01X33492Y9931D01*
G01X33492Y9672D01*
G01X33441Y9517D01*
G01X33388Y9413D01*
G01X33286Y9309D01*
G01X33129Y9258D01*
G01X32766Y9258D01*
G01X33835Y10347D02*
G01X33835Y9568D01*
G01X33888Y9413D01*
G01X33992Y9309D01*
G01X34147Y9258D01*
G01X34251Y9258D01*
G01X34406Y9309D01*
G01X34510Y9413D01*
G01X34564Y9568D01*
G01X34564Y10347D01*
G01X34907Y10347D02*
G01X34907Y9258D01*
G01X34907Y10347D02*
G01X35374Y10347D01*
G01X35529Y10297D01*
G01X35582Y10243D01*
G01X35633Y10139D01*
G01X35633Y9984D01*
G01X35582Y9880D01*
G01X35529Y9829D01*
G01X35374Y9776D01*
G01X34907Y9776D01*
G01X36288Y10347D02*
G01X36184Y10297D01*
G01X36080Y10193D01*
G01X36029Y10088D01*
G01X35976Y9931D01*
G01X35976Y9672D01*
G01X36029Y9517D01*
G01X36080Y9413D01*
G01X36184Y9309D01*
G01X36288Y9258D01*
G01X36497Y9258D01*
G01X36601Y9309D01*
G01X36703Y9413D01*
G01X36756Y9517D01*
G01X36807Y9672D01*
G01X36807Y9931D01*
G01X36756Y10088D01*
G01X36703Y10193D01*
G01X36601Y10297D01*
G01X36497Y10347D01*
G01X36288Y10347D01*
G01X37150Y10347D02*
G01X37150Y9258D01*
G01X37150Y10347D02*
G01X37879Y9258D01*
G01X37879Y10347D02*
G01X37879Y9258D01*
G01X38585Y10347D02*
G01X38585Y9258D01*
G01X38221Y10347D02*
G01X38948Y10347D01*
G01X32893Y8569D02*
G01X32893Y7480D01*
G01X32893Y8569D02*
G01X33309Y7480D01*
G01X33723Y8569D02*
G01X33309Y7480D01*
G01X33723Y8569D02*
G01X33723Y7480D01*
G01X34483Y8569D02*
G01X34066Y7480D01*
G01X34483Y8569D02*
G01X34899Y7480D01*
G01X34223Y7843D02*
G01X34742Y7843D01*
G01X36019Y8310D02*
G01X35968Y8415D01*
G01X35864Y8519D01*
G01X35760Y8569D01*
G01X35552Y8569D01*
G01X35448Y8519D01*
G01X35344Y8415D01*
G01X35293Y8310D01*
G01X35242Y8153D01*
G01X35242Y7894D01*
G01X35293Y7739D01*
G01X35344Y7635D01*
G01X35448Y7531D01*
G01X35552Y7480D01*
G01X35760Y7480D01*
G01X35864Y7531D01*
G01X35968Y7635D01*
G01X36019Y7739D01*
G01X36362Y8569D02*
G01X36362Y7480D01*
G01X37091Y8569D02*
G01X37091Y7480D01*
G01X36362Y8051D02*
G01X37091Y8051D01*
G01X37744Y8569D02*
G01X37642Y8519D01*
G01X37538Y8415D01*
G01X37485Y8310D01*
G01X37434Y8153D01*
G01X37434Y7894D01*
G01X37485Y7739D01*
G01X37538Y7635D01*
G01X37642Y7531D01*
G01X37744Y7480D01*
G01X37952Y7480D01*
G01X38056Y7531D01*
G01X38160Y7635D01*
G01X38214Y7739D01*
G01X38265Y7894D01*
G01X38265Y8153D01*
G01X38214Y8310D01*
G01X38160Y8415D01*
G01X38056Y8519D01*
G01X37952Y8569D01*
G01X37744Y8569D01*
G01X12816Y58204D02*
G01X12816Y57685D01*
G01X13284Y57632D01*
G01X13233Y57685D01*
G01X13180Y57840D01*
G01X13180Y57998D01*
G01X13233Y58153D01*
G01X13335Y58257D01*
G01X13492Y58308D01*
G01X13596Y58308D01*
G01X13751Y58257D01*
G01X13855Y58153D01*
G01X13906Y57998D01*
G01X13906Y57840D01*
G01X13855Y57685D01*
G01X13804Y57632D01*
G01X13700Y57581D01*
G01X12816Y58651D02*
G01X13906Y59067D01*
G01X12816Y59484D02*
G01X13906Y59067D01*
G01X15483Y57581D02*
G01X16573Y57581D01*
G01X15483Y57581D02*
G01X15483Y57945D01*
G01X15534Y58102D01*
G01X15638Y58204D01*
G01X15742Y58257D01*
G01X15900Y58308D01*
G01X16159Y58308D01*
G01X16314Y58257D01*
G01X16418Y58204D01*
G01X16522Y58102D01*
G01X16573Y57945D01*
G01X16573Y57581D01*
G01X15483Y58651D02*
G01X16573Y58651D01*
G01X15483Y58994D02*
G01X16573Y58994D01*
G01X15483Y58994D02*
G01X16573Y59723D01*
G01X15483Y59723D02*
G01X16573Y59723D01*
G01X18536Y58361D02*
G01X18432Y58308D01*
G01X18328Y58204D01*
G01X18277Y58102D01*
G01X18277Y57894D01*
G01X18328Y57790D01*
G01X18432Y57685D01*
G01X18536Y57632D01*
G01X18694Y57581D01*
G01X18953Y57581D01*
G01X19108Y57632D01*
G01X19212Y57685D01*
G01X19316Y57790D01*
G01X19367Y57894D01*
G01X19367Y58102D01*
G01X19316Y58204D01*
G01X19212Y58308D01*
G01X19108Y58361D01*
G01X18953Y58361D01*
G01X18953Y58102D02*
G01X18953Y58361D01*
G01X18277Y58704D02*
G01X19367Y58704D01*
G01X18277Y58704D02*
G01X19367Y59430D01*
G01X18277Y59430D02*
G01X19367Y59430D01*
G01X18277Y59773D02*
G01X19367Y59773D01*
G01X18277Y59773D02*
G01X18277Y60137D01*
G01X18328Y60294D01*
G01X18432Y60398D01*
G01X18536Y60449D01*
G01X18694Y60502D01*
G01X18953Y60502D01*
G01X19108Y60449D01*
G01X19212Y60398D01*
G01X19316Y60294D01*
G01X19367Y60137D01*
G01X19367Y59773D01*
G54D13*
G01X14097Y69118D02*
G01X14777Y66253D01*
G01X15460Y69118D02*
G01X14777Y66253D01*
G01X15460Y69118D02*
G01X16141Y66253D01*
G01X16824Y69118D02*
G01X16141Y66253D01*
G01X17724Y69118D02*
G01X17724Y66253D01*
G01X17724Y66253D02*
G01X19359Y66253D01*
G01X20261Y69118D02*
G01X20261Y66253D01*
G01X20261Y69118D02*
G01X22034Y69118D01*
G01X20261Y67754D02*
G01X21351Y67754D01*
G01X20261Y66253D02*
G01X22034Y66253D01*
G01X22933Y69118D02*
G01X22933Y66253D01*
G01X22933Y69118D02*
G01X23888Y69118D01*
G01X24297Y68981D01*
G01X24569Y68709D01*
G01X24706Y68435D01*
G01X24841Y68026D01*
G01X24841Y67345D01*
G01X24706Y66936D01*
G01X24569Y66662D01*
G01X24297Y66390D01*
G01X23888Y66253D01*
G01X22933Y66253D01*
G01X25742Y67482D02*
G01X28196Y67482D01*
G01X29098Y69118D02*
G01X29098Y66253D01*
G01X29098Y69118D02*
G01X30187Y66253D01*
G01X31277Y69118D02*
G01X30187Y66253D01*
G01X31277Y69118D02*
G01X31277Y66253D01*
G01X33268Y69118D02*
G01X32179Y66253D01*
G01X33268Y69118D02*
G01X34361Y66253D01*
G01X32588Y67208D02*
G01X33952Y67208D01*
G01X37170Y68709D02*
G01X36896Y68981D01*
G01X36487Y69118D01*
G01X35943Y69118D01*
G01X35534Y68981D01*
G01X35260Y68709D01*
G01X35260Y68435D01*
G01X35397Y68163D01*
G01X35534Y68026D01*
G01X35806Y67891D01*
G01X36624Y67617D01*
G01X36896Y67482D01*
G01X37033Y67345D01*
G01X37170Y67073D01*
G01X37170Y66662D01*
G01X36896Y66390D01*
G01X36487Y66253D01*
G01X35943Y66253D01*
G01X35534Y66390D01*
G01X35260Y66662D01*
G01X39024Y69118D02*
G01X39024Y66253D01*
G01X38069Y69118D02*
G01X39979Y69118D01*
G01X40878Y69118D02*
G01X40878Y66253D01*
G01X40878Y69118D02*
G01X42651Y69118D01*
G01X40878Y67754D02*
G01X41970Y67754D01*
G01X40878Y66253D02*
G01X42651Y66253D01*
G01X43550Y69118D02*
G01X43550Y66253D01*
G01X43550Y69118D02*
G01X44777Y69118D01*
G01X45189Y68981D01*
G01X45323Y68844D01*
G01X45460Y68572D01*
G01X45460Y68300D01*
G01X45323Y68026D01*
G01X45189Y67891D01*
G01X44777Y67754D01*
G01X43550Y67754D01*
G01X44505Y67754D02*
G01X45460Y66253D01*
G01X49278Y69118D02*
G01X48869Y68981D01*
G01X48597Y68572D01*
G01X48460Y67891D01*
G01X48460Y67482D01*
G01X48597Y66799D01*
G01X48869Y66390D01*
G01X49278Y66253D01*
G01X49550Y66253D01*
G01X49961Y66390D01*
G01X50233Y66799D01*
G01X50370Y67482D01*
G01X50370Y67891D01*
G01X50233Y68572D01*
G01X49961Y68981D01*
G01X49550Y69118D01*
G01X49278Y69118D01*
G01X51407Y66936D02*
G01X51269Y66799D01*
G01X51407Y66662D01*
G01X51541Y66799D01*
G01X51407Y66936D01*
G01X52443Y68572D02*
G01X52715Y68709D01*
G01X53124Y69118D01*
G01X53124Y66253D01*
G01X54843Y69118D02*
G01X54432Y68981D01*
G01X54160Y68572D01*
G01X54023Y67891D01*
G01X54023Y67482D01*
G01X54160Y66799D01*
G01X54432Y66390D01*
G01X54843Y66253D01*
G01X55115Y66253D01*
G01X55524Y66390D01*
G01X55796Y66799D01*
G01X55933Y67482D01*
G01X55933Y67891D01*
G01X55796Y68572D01*
G01X55524Y68981D01*
G01X55115Y69118D01*
G01X54843Y69118D01*
G01X58933Y69118D02*
G01X58933Y66253D01*
G01X58933Y69118D02*
G01X60025Y66253D01*
G01X61114Y69118D02*
G01X60025Y66253D01*
G01X61114Y69118D02*
G01X61114Y66253D01*
G01X62834Y69118D02*
G01X62560Y68981D01*
G01X62288Y68709D01*
G01X62151Y68435D01*
G01X62014Y68026D01*
G01X62014Y67345D01*
G01X62151Y66936D01*
G01X62288Y66662D01*
G01X62560Y66390D01*
G01X62834Y66253D01*
G01X63378Y66253D01*
G01X63652Y66390D01*
G01X63924Y66662D01*
G01X64061Y66936D01*
G01X64195Y67345D01*
G01X64195Y68026D01*
G01X64061Y68435D01*
G01X63924Y68709D01*
G01X63652Y68981D01*
G01X63378Y69118D01*
G01X62834Y69118D01*
G01X65097Y69118D02*
G01X65097Y66253D01*
G01X65097Y69118D02*
G01X66052Y69118D01*
G01X66461Y68981D01*
G01X66733Y68709D01*
G01X66870Y68435D01*
G01X67005Y68026D01*
G01X67005Y67345D01*
G01X66870Y66936D01*
G01X66733Y66662D01*
G01X66461Y66390D01*
G01X66052Y66253D01*
G01X65097Y66253D01*
G01X70004Y69118D02*
G01X70004Y66253D01*
G01X70004Y67754D02*
G01X70279Y68026D01*
G01X70551Y68163D01*
G01X70959Y68163D01*
G01X71234Y68026D01*
G01X71506Y67754D01*
G01X71643Y67345D01*
G01X71643Y67073D01*
G01X71506Y66662D01*
G01X71234Y66390D01*
G01X70959Y66253D01*
G01X70551Y66253D01*
G01X70279Y66390D01*
G01X70004Y66662D01*
G01X72679Y68163D02*
G01X73497Y66253D01*
G01X74315Y68163D02*
G01X73497Y66253D01*
G01X73223Y65709D01*
G01X72951Y65435D01*
G01X72679Y65300D01*
G01X72542Y65300D01*
G01X77315Y69118D02*
G01X77315Y66253D01*
G01X77315Y69118D02*
G01X78407Y66253D01*
G01X79496Y69118D02*
G01X78407Y66253D01*
G01X79496Y69118D02*
G01X79496Y66253D01*
G01X80396Y69118D02*
G01X80396Y66253D01*
G01X82250Y69118D02*
G01X82250Y66253D01*
G01X81297Y69118D02*
G01X83205Y69118D01*
G01X84107Y69118D02*
G01X84107Y66253D01*
G01X86014Y69118D02*
G01X86014Y66253D01*
G01X84107Y67754D02*
G01X86014Y67754D01*
G01X87734Y69118D02*
G01X87459Y68981D01*
G01X87188Y68709D01*
G01X87050Y68435D01*
G01X86916Y68026D01*
G01X86916Y67345D01*
G01X87050Y66936D01*
G01X87188Y66662D01*
G01X87459Y66390D01*
G01X87734Y66253D01*
G01X88277Y66253D01*
G01X88552Y66390D01*
G01X88823Y66662D01*
G01X88960Y66936D01*
G01X89098Y67345D01*
G01X89098Y68026D01*
G01X88960Y68435D01*
G01X88823Y68709D01*
G01X88552Y68981D01*
G01X88277Y69118D01*
G01X87734Y69118D01*
G54D29*
G01X26634Y48420D02*
G01X26530Y48524D01*
G01X26375Y48574D01*
G01X26167Y48574D01*
G01X26012Y48524D01*
G01X25908Y48420D01*
G01X25908Y48315D01*
G01X25958Y48211D01*
G01X26012Y48158D01*
G01X26116Y48107D01*
G01X26428Y48003D01*
G01X26530Y47952D01*
G01X26583Y47899D01*
G01X26634Y47795D01*
G01X26634Y47640D01*
G01X26530Y47536D01*
G01X26375Y47485D01*
G01X26167Y47485D01*
G01X26012Y47536D01*
G01X25908Y47640D01*
G01X26977Y48574D02*
G01X26977Y47485D01*
G01X26977Y48574D02*
G01X27343Y48574D01*
G01X27498Y48524D01*
G01X27602Y48420D01*
G01X27652Y48315D01*
G01X27706Y48158D01*
G01X27706Y47899D01*
G01X27652Y47744D01*
G01X27602Y47640D01*
G01X27498Y47536D01*
G01X27343Y47485D01*
G01X26977Y47485D01*
G01X28049Y48574D02*
G01X28049Y47485D01*
G01X28049Y48574D02*
G01X28412Y48574D01*
G01X28567Y48524D01*
G01X28671Y48420D01*
G01X28724Y48315D01*
G01X28775Y48158D01*
G01X28775Y47899D01*
G01X28724Y47744D01*
G01X28671Y47640D01*
G01X28567Y47536D01*
G01X28412Y47485D01*
G01X28049Y47485D01*
G01X29118Y48366D02*
G01X29222Y48420D01*
G01X29377Y48574D01*
G01X29377Y47485D01*
G01X29824Y48574D02*
G01X30396Y48574D01*
G01X30086Y48158D01*
G01X30241Y48158D01*
G01X30345Y48107D01*
G01X30396Y48056D01*
G01X30449Y47899D01*
G01X30449Y47795D01*
G01X30396Y47640D01*
G01X30292Y47536D01*
G01X30137Y47485D01*
G01X29982Y47485D01*
G01X29824Y47536D01*
G01X29773Y47586D01*
G01X29720Y47691D01*
G01X31102Y48574D02*
G01X30947Y48524D01*
G01X30843Y48366D01*
G01X30792Y48107D01*
G01X30792Y47952D01*
G01X30843Y47691D01*
G01X30947Y47536D01*
G01X31102Y47485D01*
G01X31206Y47485D01*
G01X31363Y47536D01*
G01X31468Y47691D01*
G01X31518Y47952D01*
G01X31518Y48107D01*
G01X31468Y48366D01*
G01X31363Y48524D01*
G01X31206Y48574D01*
G01X31102Y48574D01*
G01X32486Y48420D02*
G01X32433Y48524D01*
G01X32278Y48574D01*
G01X32174Y48574D01*
G01X32016Y48524D01*
G01X31915Y48366D01*
G01X31861Y48107D01*
G01X31861Y47848D01*
G01X31915Y47640D01*
G01X32016Y47536D01*
G01X32174Y47485D01*
G01X32224Y47485D01*
G01X32382Y47536D01*
G01X32486Y47640D01*
G01X32537Y47795D01*
G01X32537Y47848D01*
G01X32486Y48003D01*
G01X32382Y48107D01*
G01X32224Y48158D01*
G01X32174Y48158D01*
G01X32016Y48107D01*
G01X31915Y48003D01*
G01X31861Y47848D01*
G01X34043Y48783D02*
G01X33939Y48679D01*
G01X33835Y48524D01*
G01X33731Y48315D01*
G01X33680Y48056D01*
G01X33680Y47848D01*
G01X33731Y47586D01*
G01X33835Y47381D01*
G01X33939Y47223D01*
G01X34043Y47119D01*
G01X34386Y48574D02*
G01X34386Y47485D01*
G01X34729Y48574D02*
G01X34729Y47485D01*
G01X34729Y48574D02*
G01X35196Y48574D01*
G01X35354Y48524D01*
G01X35405Y48470D01*
G01X35458Y48366D01*
G01X35458Y48211D01*
G01X35405Y48107D01*
G01X35354Y48056D01*
G01X35196Y48003D01*
G01X34729Y48003D01*
G01X35801Y48574D02*
G01X35801Y47485D01*
G01X36144Y48574D02*
G01X36144Y47485D01*
G01X36144Y48574D02*
G01X36870Y47485D01*
G01X36870Y48574D02*
G01X36870Y47485D01*
G01X37213Y48574D02*
G01X37213Y47485D01*
G01X37213Y48574D02*
G01X37889Y48574D01*
G01X37213Y48056D02*
G01X37630Y48056D01*
G01X38544Y48574D02*
G01X38440Y48524D01*
G01X38336Y48420D01*
G01X38282Y48315D01*
G01X38232Y48158D01*
G01X38232Y47899D01*
G01X38282Y47744D01*
G01X38336Y47640D01*
G01X38440Y47536D01*
G01X38544Y47485D01*
G01X38750Y47485D01*
G01X38854Y47536D01*
G01X38958Y47640D01*
G01X39011Y47744D01*
G01X39062Y47899D01*
G01X39062Y48158D01*
G01X39011Y48315D01*
G01X38958Y48420D01*
G01X38854Y48524D01*
G01X38750Y48574D01*
G01X38544Y48574D01*
G01X39509Y47691D02*
G01X39458Y47640D01*
G01X39405Y47691D01*
G01X39458Y47744D01*
G01X39509Y47691D01*
G01X39509Y47586D01*
G01X39405Y47485D01*
G01X40652Y48574D02*
G01X40652Y47485D01*
G01X40652Y48574D02*
G01X41328Y48574D01*
G01X40652Y48056D02*
G01X41069Y48056D01*
G01X40652Y47485D02*
G01X41328Y47485D01*
G01X41671Y48574D02*
G01X41671Y47485D01*
G01X41671Y48574D02*
G01X42346Y48574D01*
G01X41671Y48056D02*
G01X42087Y48056D01*
G01X42689Y48574D02*
G01X42689Y47485D01*
G01X42689Y48574D02*
G01X43365Y48574D01*
G01X42689Y48056D02*
G01X43103Y48056D01*
G01X43708Y48574D02*
G01X43708Y47485D01*
G01X43708Y48574D02*
G01X44383Y48574D01*
G01X43708Y48056D02*
G01X44122Y48056D01*
G01X43708Y47485D02*
G01X44383Y47485D01*
G01X45504Y48315D02*
G01X45453Y48420D01*
G01X45349Y48524D01*
G01X45245Y48574D01*
G01X45036Y48574D01*
G01X44932Y48524D01*
G01X44831Y48420D01*
G01X44777Y48315D01*
G01X44726Y48158D01*
G01X44726Y47899D01*
G01X44777Y47744D01*
G01X44831Y47640D01*
G01X44932Y47536D01*
G01X45036Y47485D01*
G01X45245Y47485D01*
G01X45349Y47536D01*
G01X45453Y47640D01*
G01X45504Y47744D01*
G01X46212Y48574D02*
G01X46212Y47485D01*
G01X45847Y48574D02*
G01X46575Y48574D01*
G01X46918Y48783D02*
G01X47023Y48679D01*
G01X47127Y48524D01*
G01X47231Y48315D01*
G01X47282Y48056D01*
G01X47282Y47848D01*
G01X47231Y47586D01*
G01X47127Y47381D01*
G01X47023Y47223D01*
G01X46918Y47119D01*
G01X25908Y46034D02*
G01X25908Y44945D01*
G01X25908Y46034D02*
G01X26375Y46034D01*
G01X26530Y45984D01*
G01X26583Y45930D01*
G01X26634Y45826D01*
G01X26634Y45722D01*
G01X26583Y45618D01*
G01X26530Y45567D01*
G01X26375Y45516D01*
G01X25908Y45516D01*
G01X26271Y45516D02*
G01X26634Y44945D01*
G01X27289Y46034D02*
G01X27185Y45984D01*
G01X27081Y45880D01*
G01X27030Y45775D01*
G01X26977Y45618D01*
G01X26977Y45359D01*
G01X27030Y45204D01*
G01X27081Y45100D01*
G01X27185Y44996D01*
G01X27289Y44945D01*
G01X27498Y44945D01*
G01X27602Y44996D01*
G01X27706Y45100D01*
G01X27757Y45204D01*
G01X27810Y45359D01*
G01X27810Y45618D01*
G01X27757Y45775D01*
G01X27706Y45880D01*
G01X27602Y45984D01*
G01X27498Y46034D01*
G01X27289Y46034D01*
G01X28516Y46034D02*
G01X28516Y44945D01*
G01X28153Y46034D02*
G01X28879Y46034D01*
G01X29639Y46034D02*
G01X29222Y44945D01*
G01X29639Y46034D02*
G01X30053Y44945D01*
G01X29377Y45308D02*
G01X29898Y45308D01*
G01X30396Y46034D02*
G01X30396Y44945D01*
G01X30396Y46034D02*
G01X30863Y46034D01*
G01X31021Y45984D01*
G01X31071Y45930D01*
G01X31125Y45826D01*
G01X31125Y45722D01*
G01X31071Y45618D01*
G01X31021Y45567D01*
G01X30863Y45516D01*
G01X30396Y45516D01*
G01X30759Y45516D02*
G01X31125Y44945D01*
G01X31468Y46034D02*
G01X31882Y45516D01*
G01X31882Y44945D01*
G01X32298Y46034D02*
G01X31882Y45516D01*
G01X33441Y46034D02*
G01X33441Y44945D01*
G01X33441Y46034D02*
G01X34117Y46034D01*
G01X33441Y45516D02*
G01X33858Y45516D01*
G01X33441Y44945D02*
G01X34117Y44945D01*
G01X34460Y46034D02*
G01X34460Y44945D01*
G01X34460Y46034D02*
G01X35186Y44945D01*
G01X35186Y46034D02*
G01X35186Y44945D01*
G01X36309Y45775D02*
G01X36258Y45880D01*
G01X36154Y45984D01*
G01X36050Y46034D01*
G01X35841Y46034D01*
G01X35737Y45984D01*
G01X35633Y45880D01*
G01X35582Y45775D01*
G01X35529Y45618D01*
G01X35529Y45359D01*
G01X35582Y45204D01*
G01X35633Y45100D01*
G01X35737Y44996D01*
G01X35841Y44945D01*
G01X36050Y44945D01*
G01X36154Y44996D01*
G01X36258Y45100D01*
G01X36309Y45204D01*
G01X36964Y46034D02*
G01X36860Y45984D01*
G01X36756Y45880D01*
G01X36703Y45775D01*
G01X36652Y45618D01*
G01X36652Y45359D01*
G01X36703Y45204D01*
G01X36756Y45100D01*
G01X36860Y44996D01*
G01X36964Y44945D01*
G01X37172Y44945D01*
G01X37274Y44996D01*
G01X37378Y45100D01*
G01X37431Y45204D01*
G01X37482Y45359D01*
G01X37482Y45618D01*
G01X37431Y45775D01*
G01X37378Y45880D01*
G01X37274Y45984D01*
G01X37172Y46034D01*
G01X36964Y46034D01*
G01X37825Y46034D02*
G01X37825Y44945D01*
G01X37825Y46034D02*
G01X38188Y46034D01*
G01X38346Y45984D01*
G01X38450Y45880D01*
G01X38501Y45775D01*
G01X38554Y45618D01*
G01X38554Y45359D01*
G01X38501Y45204D01*
G01X38450Y45100D01*
G01X38346Y44996D01*
G01X38188Y44945D01*
G01X37825Y44945D01*
G01X38897Y46034D02*
G01X38897Y44945D01*
G01X38897Y46034D02*
G01X39573Y46034D01*
G01X38897Y45516D02*
G01X39311Y45516D01*
G01X38897Y44945D02*
G01X39573Y44945D01*
G01X39916Y46034D02*
G01X39916Y44945D01*
G01X39916Y46034D02*
G01X40383Y46034D01*
G01X40538Y45984D01*
G01X40589Y45930D01*
G01X40642Y45826D01*
G01X40642Y45722D01*
G01X40589Y45618D01*
G01X40538Y45567D01*
G01X40383Y45516D01*
G01X39916Y45516D01*
G01X40279Y45516D02*
G01X40642Y44945D01*
G01X42148Y46243D02*
G01X42044Y46139D01*
G01X41940Y45984D01*
G01X41836Y45775D01*
G01X41785Y45516D01*
G01X41785Y45308D01*
G01X41836Y45046D01*
G01X41940Y44841D01*
G01X42044Y44683D01*
G01X42148Y44579D01*
G01X42491Y46034D02*
G01X42491Y44945D01*
G01X42491Y46034D02*
G01X42959Y46034D01*
G01X43116Y45984D01*
G01X43167Y45930D01*
G01X43218Y45826D01*
G01X43218Y45722D01*
G01X43167Y45618D01*
G01X43116Y45567D01*
G01X42959Y45516D01*
G01X42491Y45516D02*
G01X42959Y45516D01*
G01X43116Y45463D01*
G01X43167Y45412D01*
G01X43218Y45308D01*
G01X43218Y45151D01*
G01X43167Y45046D01*
G01X43116Y44996D01*
G01X42959Y44945D01*
G01X42491Y44945D01*
G01X43561Y46034D02*
G01X43561Y44945D01*
G01X43561Y46034D02*
G01X44030Y46034D01*
G01X44185Y45984D01*
G01X44236Y45930D01*
G01X44289Y45826D01*
G01X44289Y45722D01*
G01X44236Y45618D01*
G01X44185Y45567D01*
G01X44030Y45516D01*
G01X43561Y45516D01*
G01X43926Y45516D02*
G01X44289Y44945D01*
G01X44632Y46034D02*
G01X44632Y44945D01*
G01X45755Y45775D02*
G01X45702Y45880D01*
G01X45598Y45984D01*
G01X45493Y46034D01*
G01X45288Y46034D01*
G01X45184Y45984D01*
G01X45079Y45880D01*
G01X45026Y45775D01*
G01X44975Y45618D01*
G01X44975Y45359D01*
G01X45026Y45204D01*
G01X45079Y45100D01*
G01X45184Y44996D01*
G01X45288Y44945D01*
G01X45493Y44945D01*
G01X45598Y44996D01*
G01X45702Y45100D01*
G01X45755Y45204D01*
G01X45755Y45359D01*
G01X45493Y45359D02*
G01X45755Y45359D01*
G01X46098Y46034D02*
G01X46098Y44945D01*
G01X46824Y46034D02*
G01X46824Y44945D01*
G01X46098Y45516D02*
G01X46824Y45516D01*
G01X47531Y46034D02*
G01X47531Y44945D01*
G01X47167Y46034D02*
G01X47894Y46034D01*
G01X48237Y46034D02*
G01X48237Y44945D01*
G01X48237Y46034D02*
G01X48966Y44945D01*
G01X48966Y46034D02*
G01X48966Y44945D01*
G01X49309Y46034D02*
G01X49309Y44945D01*
G01X49309Y46034D02*
G01X49984Y46034D01*
G01X49309Y45516D02*
G01X49723Y45516D01*
G01X49309Y44945D02*
G01X49984Y44945D01*
G01X51054Y45880D02*
G01X50949Y45984D01*
G01X50794Y46034D01*
G01X50586Y46034D01*
G01X50431Y45984D01*
G01X50327Y45880D01*
G01X50327Y45775D01*
G01X50378Y45671D01*
G01X50431Y45618D01*
G01X50533Y45567D01*
G01X50845Y45463D01*
G01X50949Y45412D01*
G01X51003Y45359D01*
G01X51054Y45255D01*
G01X51054Y45100D01*
G01X50949Y44996D01*
G01X50794Y44945D01*
G01X50586Y44945D01*
G01X50431Y44996D01*
G01X50327Y45100D01*
G01X52123Y45880D02*
G01X52019Y45984D01*
G01X51864Y46034D01*
G01X51655Y46034D01*
G01X51501Y45984D01*
G01X51396Y45880D01*
G01X51396Y45775D01*
G01X51447Y45671D01*
G01X51501Y45618D01*
G01X51605Y45567D01*
G01X51917Y45463D01*
G01X52019Y45412D01*
G01X52072Y45359D01*
G01X52123Y45255D01*
G01X52123Y45100D01*
G01X52019Y44996D01*
G01X51864Y44945D01*
G01X51655Y44945D01*
G01X51501Y44996D01*
G01X51396Y45100D01*
G01X52466Y46243D02*
G01X52570Y46139D01*
G01X52674Y45984D01*
G01X52778Y45775D01*
G01X52832Y45516D01*
G01X52832Y45308D01*
G01X52778Y45046D01*
G01X52674Y44841D01*
G01X52570Y44683D01*
G01X52466Y44579D01*
G01X25908Y43621D02*
G01X25908Y42532D01*
G01X25908Y43621D02*
G01X26375Y43621D01*
G01X26530Y43571D01*
G01X26583Y43517D01*
G01X26634Y43413D01*
G01X26634Y43309D01*
G01X26583Y43205D01*
G01X26530Y43154D01*
G01X26375Y43103D01*
G01X25908Y43103D01*
G01X26271Y43103D02*
G01X26634Y42532D01*
G01X26977Y43621D02*
G01X26977Y42532D01*
G01X26977Y43621D02*
G01X27652Y43621D01*
G01X26977Y43103D02*
G01X27393Y43103D01*
G01X26977Y42532D02*
G01X27652Y42532D01*
G01X27995Y43621D02*
G01X27995Y42532D01*
G01X27995Y42532D02*
G01X28620Y42532D01*
G01X29377Y43621D02*
G01X28963Y42532D01*
G01X29377Y43621D02*
G01X29794Y42532D01*
G01X29118Y42895D02*
G01X29639Y42895D01*
G01X30137Y43621D02*
G01X30553Y43103D01*
G01X30553Y42532D01*
G01X30967Y43621D02*
G01X30553Y43103D01*
G01X32473Y43830D02*
G01X32372Y43726D01*
G01X32268Y43571D01*
G01X32164Y43362D01*
G01X32110Y43103D01*
G01X32110Y42895D01*
G01X32164Y42633D01*
G01X32268Y42428D01*
G01X32372Y42270D01*
G01X32473Y42166D01*
G01X33129Y43621D02*
G01X33025Y43571D01*
G01X32920Y43467D01*
G01X32870Y43362D01*
G01X32816Y43205D01*
G01X32816Y42946D01*
G01X32870Y42791D01*
G01X32920Y42687D01*
G01X33025Y42583D01*
G01X33129Y42532D01*
G01X33337Y42532D01*
G01X33441Y42583D01*
G01X33545Y42687D01*
G01X33596Y42791D01*
G01X33649Y42946D01*
G01X33649Y43205D01*
G01X33596Y43362D01*
G01X33545Y43467D01*
G01X33441Y43571D01*
G01X33337Y43621D01*
G01X33129Y43621D01*
G01X33992Y43621D02*
G01X33992Y42532D01*
G01X33992Y43621D02*
G01X34719Y42532D01*
G01X34719Y43621D02*
G01X34719Y42532D01*
G01X35996Y43830D02*
G01X35062Y42166D01*
G01X36652Y43621D02*
G01X36548Y43571D01*
G01X36443Y43467D01*
G01X36393Y43362D01*
G01X36339Y43205D01*
G01X36339Y42946D01*
G01X36393Y42791D01*
G01X36443Y42687D01*
G01X36548Y42583D01*
G01X36652Y42532D01*
G01X36860Y42532D01*
G01X36964Y42583D01*
G01X37068Y42687D01*
G01X37119Y42791D01*
G01X37172Y42946D01*
G01X37172Y43205D01*
G01X37119Y43362D01*
G01X37068Y43467D01*
G01X36964Y43571D01*
G01X36860Y43621D01*
G01X36652Y43621D01*
G01X37515Y43621D02*
G01X37515Y42532D01*
G01X37515Y43621D02*
G01X38188Y43621D01*
G01X37515Y43103D02*
G01X37929Y43103D01*
G01X38531Y43621D02*
G01X38531Y42532D01*
G01X38531Y43621D02*
G01X39207Y43621D01*
G01X38531Y43103D02*
G01X38948Y43103D01*
G01X39550Y43830D02*
G01X39654Y43726D01*
G01X39758Y43571D01*
G01X39862Y43362D01*
G01X39916Y43103D01*
G01X39916Y42895D01*
G01X39862Y42633D01*
G01X39758Y42428D01*
G01X39654Y42270D01*
G01X39550Y42166D01*
G01X41059Y43621D02*
G01X41473Y42532D01*
G01X41889Y43621D02*
G01X41473Y42532D01*
G01X43012Y43362D02*
G01X42959Y43467D01*
G01X42854Y43571D01*
G01X42750Y43621D01*
G01X42545Y43621D01*
G01X42440Y43571D01*
G01X42336Y43467D01*
G01X42283Y43362D01*
G01X42232Y43205D01*
G01X42232Y42946D01*
G01X42283Y42791D01*
G01X42336Y42687D01*
G01X42440Y42583D01*
G01X42545Y42532D01*
G01X42750Y42532D01*
G01X42854Y42583D01*
G01X42959Y42687D01*
G01X43012Y42791D01*
G01X44132Y43362D02*
G01X44081Y43467D01*
G01X43977Y43571D01*
G01X43873Y43621D01*
G01X43665Y43621D01*
G01X43561Y43571D01*
G01X43459Y43467D01*
G01X43406Y43362D01*
G01X43355Y43205D01*
G01X43355Y42946D01*
G01X43406Y42791D01*
G01X43459Y42687D01*
G01X43561Y42583D01*
G01X43665Y42532D01*
G01X43873Y42532D01*
G01X43977Y42583D01*
G01X44081Y42687D01*
G01X44132Y42791D01*
G01X25908Y51727D02*
G01X25908Y49817D01*
G01X25908Y51727D02*
G01X26545Y51727D01*
G01X26817Y51635D01*
G01X26997Y51452D01*
G01X27089Y51272D01*
G01X27180Y50998D01*
G01X27180Y50543D01*
G01X27089Y50271D01*
G01X26997Y50088D01*
G01X26817Y49908D01*
G01X26545Y49817D01*
G01X25908Y49817D01*
G01X27779Y51727D02*
G01X27779Y49817D01*
G01X27779Y51727D02*
G01X28963Y51727D01*
G01X27779Y50817D02*
G01X28508Y50817D01*
G01X27779Y49817D02*
G01X28963Y49817D01*
G01X29563Y51727D02*
G01X30289Y49817D01*
G01X31015Y51727D02*
G01X30289Y49817D01*
G01X31617Y51727D02*
G01X31617Y49817D01*
G01X31617Y51727D02*
G01X32799Y51727D01*
G01X31617Y50817D02*
G01X32344Y50817D01*
G01X31617Y49817D02*
G01X32799Y49817D01*
G01X33398Y51727D02*
G01X33398Y49817D01*
G01X33398Y49817D02*
G01X34490Y49817D01*
G01X35636Y51727D02*
G01X35453Y51635D01*
G01X35270Y51452D01*
G01X35181Y51272D01*
G01X35090Y50998D01*
G01X35090Y50543D01*
G01X35181Y50271D01*
G01X35270Y50088D01*
G01X35453Y49908D01*
G01X35636Y49817D01*
G01X35999Y49817D01*
G01X36179Y49908D01*
G01X36362Y50088D01*
G01X36454Y50271D01*
G01X36545Y50543D01*
G01X36545Y50998D01*
G01X36454Y51272D01*
G01X36362Y51452D01*
G01X36179Y51635D01*
G01X35999Y51727D01*
G01X35636Y51727D01*
G01X37144Y51727D02*
G01X37144Y49817D01*
G01X37144Y51727D02*
G01X37962Y51727D01*
G01X38234Y51635D01*
G01X38326Y51544D01*
G01X38417Y51361D01*
G01X38417Y51089D01*
G01X38326Y50906D01*
G01X38234Y50817D01*
G01X37962Y50726D01*
G01X37144Y50726D01*
G01X39016Y51727D02*
G01X39016Y49817D01*
G01X39016Y51727D02*
G01X40198Y51727D01*
G01X39016Y50817D02*
G01X39743Y50817D01*
G01X39016Y49817D02*
G01X40198Y49817D01*
G01X40800Y51727D02*
G01X40800Y49817D01*
G01X40800Y51727D02*
G01X41526Y49817D01*
G01X42252Y51727D02*
G01X41526Y49817D01*
G01X42252Y51727D02*
G01X42252Y49817D01*
G01X42852Y51727D02*
G01X42852Y49817D01*
G01X42852Y51727D02*
G01X44035Y51727D01*
G01X42852Y50817D02*
G01X43581Y50817D01*
G01X42852Y49817D02*
G01X44035Y49817D01*
G01X44635Y51727D02*
G01X44635Y49817D01*
G01X44635Y51727D02*
G01X45907Y49817D01*
G01X45907Y51727D02*
G01X45907Y49817D01*
G01X47144Y51727D02*
G01X47144Y49817D01*
G01X46507Y51727D02*
G01X47779Y51727D01*
G01X51054Y51452D02*
G01X50871Y51635D01*
G01X50599Y51727D01*
G01X50236Y51727D01*
G01X49961Y51635D01*
G01X49781Y51452D01*
G01X49781Y51272D01*
G01X49872Y51089D01*
G01X49961Y50998D01*
G01X50144Y50906D01*
G01X50690Y50726D01*
G01X50871Y50634D01*
G01X50962Y50543D01*
G01X51054Y50363D01*
G01X51054Y50088D01*
G01X50871Y49908D01*
G01X50599Y49817D01*
G01X50236Y49817D01*
G01X49961Y49908D01*
G01X49781Y50088D01*
G01X51653Y51727D02*
G01X51653Y49817D01*
G01X51653Y51727D02*
G01X52834Y51727D01*
G01X51653Y50817D02*
G01X52379Y50817D01*
G01X51653Y49817D02*
G01X52834Y49817D01*
G01X54071Y51727D02*
G01X54071Y49817D01*
G01X53436Y51727D02*
G01X54709Y51727D01*
G01X55943Y51727D02*
G01X55943Y49817D01*
G01X55308Y51727D02*
G01X56581Y51727D01*
G01X57180Y51727D02*
G01X57180Y49817D01*
G01X57779Y51727D02*
G01X57779Y49817D01*
G01X57779Y51727D02*
G01X59052Y49817D01*
G01X59052Y51727D02*
G01X59052Y49817D01*
G01X61015Y51272D02*
G01X60926Y51452D01*
G01X60744Y51635D01*
G01X60563Y51727D01*
G01X60198Y51727D01*
G01X60017Y51635D01*
G01X59834Y51452D01*
G01X59743Y51272D01*
G01X59654Y50998D01*
G01X59654Y50543D01*
G01X59743Y50271D01*
G01X59834Y50088D01*
G01X60017Y49908D01*
G01X60198Y49817D01*
G01X60563Y49817D01*
G01X60744Y49908D01*
G01X60926Y50088D01*
G01X61015Y50271D01*
G01X61015Y50543D01*
G01X60563Y50543D02*
G01X61015Y50543D01*
G01X62890Y51452D02*
G01X62707Y51635D01*
G01X62435Y51727D01*
G01X62072Y51727D01*
G01X61798Y51635D01*
G01X61617Y51452D01*
G01X61617Y51272D01*
G01X61706Y51089D01*
G01X61798Y50998D01*
G01X61981Y50906D01*
G01X62527Y50726D01*
G01X62707Y50634D01*
G01X62798Y50543D01*
G01X62890Y50363D01*
G01X62890Y50088D01*
G01X62707Y49908D01*
G01X62435Y49817D01*
G01X62072Y49817D01*
G01X61798Y49908D01*
G01X61617Y50088D01*
G01X12827Y34015D02*
G01X12931Y34069D01*
G01X13086Y34223D01*
G01X13086Y33134D01*
G01X13741Y34223D02*
G01X13586Y34173D01*
G01X13482Y34015D01*
G01X13428Y33756D01*
G01X13428Y33601D01*
G01X13482Y33340D01*
G01X13586Y33185D01*
G01X13741Y33134D01*
G01X13845Y33134D01*
G01X14000Y33185D01*
G01X14104Y33340D01*
G01X14157Y33601D01*
G01X14157Y33756D01*
G01X14104Y34015D01*
G01X14000Y34173D01*
G01X13845Y34223D01*
G01X13741Y34223D01*
G01X14810Y34223D02*
G01X14655Y34173D01*
G01X14551Y34015D01*
G01X14500Y33756D01*
G01X14500Y33601D01*
G01X14551Y33340D01*
G01X14655Y33185D01*
G01X14810Y33134D01*
G01X14914Y33134D01*
G01X15072Y33185D01*
G01X15176Y33340D01*
G01X15227Y33601D01*
G01X15227Y33756D01*
G01X15176Y34015D01*
G01X15072Y34173D01*
G01X14914Y34223D01*
G01X14810Y34223D01*
G01X15882Y34223D02*
G01X15725Y34173D01*
G01X15621Y34015D01*
G01X15570Y33756D01*
G01X15570Y33601D01*
G01X15621Y33340D01*
G01X15725Y33185D01*
G01X15882Y33134D01*
G01X15986Y33134D01*
G01X16141Y33185D01*
G01X16245Y33340D01*
G01X16296Y33601D01*
G01X16296Y33756D01*
G01X16245Y34015D01*
G01X16141Y34173D01*
G01X15986Y34223D01*
G01X15882Y34223D01*
G01X16639Y33860D02*
G01X16639Y33340D01*
G01X16692Y33185D01*
G01X16797Y33134D01*
G01X16951Y33134D01*
G01X17056Y33185D01*
G01X17211Y33340D01*
G01X17211Y33860D02*
G01X17211Y33134D01*
G01X17553Y34223D02*
G01X17553Y33134D01*
G01X17553Y34223D02*
G01X18229Y34223D01*
G01X17553Y33705D02*
G01X17970Y33705D01*
G01X12319Y15600D02*
G01X12423Y15654D01*
G01X12578Y15808D01*
G01X12578Y14719D01*
G01X13233Y15808D02*
G01X13078Y15758D01*
G01X12974Y15600D01*
G01X12920Y15341D01*
G01X12920Y15186D01*
G01X12974Y14925D01*
G01X13078Y14770D01*
G01X13233Y14719D01*
G01X13337Y14719D01*
G01X13492Y14770D01*
G01X13596Y14925D01*
G01X13649Y15186D01*
G01X13649Y15341D01*
G01X13596Y15600D01*
G01X13492Y15758D01*
G01X13337Y15808D01*
G01X13233Y15808D01*
G01X14302Y15808D02*
G01X14147Y15758D01*
G01X14043Y15600D01*
G01X13992Y15341D01*
G01X13992Y15186D01*
G01X14043Y14925D01*
G01X14147Y14770D01*
G01X14302Y14719D01*
G01X14406Y14719D01*
G01X14564Y14770D01*
G01X14668Y14925D01*
G01X14719Y15186D01*
G01X14719Y15341D01*
G01X14668Y15600D01*
G01X14564Y15758D01*
G01X14406Y15808D01*
G01X14302Y15808D01*
G01X15374Y15808D02*
G01X15217Y15758D01*
G01X15113Y15600D01*
G01X15062Y15341D01*
G01X15062Y15186D01*
G01X15113Y14925D01*
G01X15217Y14770D01*
G01X15374Y14719D01*
G01X15478Y14719D01*
G01X15633Y14770D01*
G01X15737Y14925D01*
G01X15788Y15186D01*
G01X15788Y15341D01*
G01X15737Y15600D01*
G01X15633Y15758D01*
G01X15478Y15808D01*
G01X15374Y15808D01*
G01X16131Y15445D02*
G01X16131Y14925D01*
G01X16184Y14770D01*
G01X16289Y14719D01*
G01X16443Y14719D01*
G01X16548Y14770D01*
G01X16703Y14925D01*
G01X16703Y15445D02*
G01X16703Y14719D01*
G01X17045Y15808D02*
G01X17045Y14719D01*
G01X17045Y15808D02*
G01X17721Y15808D01*
G01X17045Y15290D02*
G01X17462Y15290D01*
G01X3500Y13639D02*
G01X3446Y13743D01*
G01X3291Y13898D01*
G01X4381Y13898D01*
G01X3291Y14241D02*
G01X4381Y14241D01*
G01X3291Y14241D02*
G01X4381Y14970D01*
G01X3291Y14970D02*
G01X4381Y14970D01*
G01X3291Y15831D02*
G01X4018Y15313D01*
G01X4018Y16090D01*
G01X3291Y15831D02*
G01X4381Y15831D01*
G01X3291Y16746D02*
G01X3342Y16591D01*
G01X3500Y16487D01*
G01X3759Y16433D01*
G01X3914Y16433D01*
G01X4175Y16487D01*
G01X4330Y16591D01*
G01X4381Y16746D01*
G01X4381Y16850D01*
G01X4330Y17005D01*
G01X4175Y17109D01*
G01X3914Y17162D01*
G01X3759Y17162D01*
G01X3500Y17109D01*
G01X3342Y17005D01*
G01X3291Y16850D01*
G01X3291Y16746D01*
G01X3291Y17818D02*
G01X3342Y17660D01*
G01X3500Y17556D01*
G01X3759Y17505D01*
G01X3914Y17505D01*
G01X4175Y17556D01*
G01X4330Y17660D01*
G01X4381Y17818D01*
G01X4381Y17919D01*
G01X4330Y18077D01*
G01X4175Y18181D01*
G01X3914Y18232D01*
G01X3759Y18232D01*
G01X3500Y18181D01*
G01X3342Y18077D01*
G01X3291Y17919D01*
G01X3291Y17818D01*
G01X3500Y18575D02*
G01X3446Y18679D01*
G01X3291Y18834D01*
G01X4381Y18834D01*
G01X3914Y19177D02*
G01X3914Y20114D01*
G01X3291Y21183D02*
G01X4381Y20662D01*
G01X3291Y20457D02*
G01X3291Y21183D01*
G01X3261Y28224D02*
G01X3208Y28328D01*
G01X3053Y28483D01*
G01X4142Y28483D01*
G01X3053Y28826D02*
G01X4142Y28826D01*
G01X3053Y28826D02*
G01X4142Y29555D01*
G01X3053Y29555D02*
G01X4142Y29555D01*
G01X3053Y30416D02*
G01X3779Y29898D01*
G01X3779Y30675D01*
G01X3053Y30416D02*
G01X4142Y30416D01*
G01X3053Y31330D02*
G01X3103Y31176D01*
G01X3261Y31071D01*
G01X3520Y31018D01*
G01X3675Y31018D01*
G01X3937Y31071D01*
G01X4091Y31176D01*
G01X4142Y31330D01*
G01X4142Y31435D01*
G01X4091Y31590D01*
G01X3937Y31694D01*
G01X3675Y31747D01*
G01X3520Y31747D01*
G01X3261Y31694D01*
G01X3103Y31590D01*
G01X3053Y31435D01*
G01X3053Y31330D01*
G01X3053Y32402D02*
G01X3103Y32245D01*
G01X3261Y32141D01*
G01X3520Y32090D01*
G01X3675Y32090D01*
G01X3937Y32141D01*
G01X4091Y32245D01*
G01X4142Y32402D01*
G01X4142Y32504D01*
G01X4091Y32661D01*
G01X3937Y32766D01*
G01X3675Y32816D01*
G01X3520Y32816D01*
G01X3261Y32766D01*
G01X3103Y32661D01*
G01X3053Y32504D01*
G01X3053Y32402D01*
G01X3261Y33159D02*
G01X3208Y33263D01*
G01X3053Y33418D01*
G01X4142Y33418D01*
G01X3675Y33761D02*
G01X3675Y34699D01*
G01X3053Y35768D02*
G01X4142Y35247D01*
G01X3053Y35041D02*
G01X3053Y35768D01*
G01X26149Y11363D02*
G01X25631Y11363D01*
G01X25577Y10896D01*
G01X25631Y10947D01*
G01X25786Y11000D01*
G01X25943Y11000D01*
G01X26098Y10947D01*
G01X26202Y10845D01*
G01X26253Y10688D01*
G01X26253Y10584D01*
G01X26202Y10429D01*
G01X26098Y10325D01*
G01X25943Y10274D01*
G01X25786Y10274D01*
G01X25631Y10325D01*
G01X25577Y10375D01*
G01X25527Y10480D01*
G01X26596Y11363D02*
G01X27012Y10274D01*
G01X27429Y11363D02*
G01X27012Y10274D01*
G01X27772Y10741D02*
G01X28707Y10741D01*
G01X29049Y11155D02*
G01X29154Y11209D01*
G01X29309Y11363D01*
G01X29309Y10274D01*
G01X26022Y1838D02*
G01X25504Y1838D01*
G01X25450Y1371D01*
G01X25504Y1422D01*
G01X25659Y1475D01*
G01X25816Y1475D01*
G01X25971Y1422D01*
G01X26075Y1320D01*
G01X26126Y1163D01*
G01X26126Y1059D01*
G01X26075Y904D01*
G01X25971Y800D01*
G01X25816Y749D01*
G01X25659Y749D01*
G01X25504Y800D01*
G01X25450Y850D01*
G01X25400Y955D01*
G01X26469Y1838D02*
G01X26885Y749D01*
G01X27302Y1838D02*
G01X26885Y749D01*
G01X27645Y1216D02*
G01X28580Y1216D01*
G01X28973Y1579D02*
G01X28973Y1630D01*
G01X29027Y1734D01*
G01X29077Y1788D01*
G01X29182Y1838D01*
G01X29390Y1838D01*
G01X29494Y1788D01*
G01X29545Y1734D01*
G01X29598Y1630D01*
G01X29598Y1526D01*
G01X29545Y1422D01*
G01X29441Y1267D01*
G01X28922Y749D01*
G01X29649Y749D01*
G01X24996Y20634D02*
G01X25567Y20634D01*
G01X25255Y20218D01*
G01X25412Y20218D01*
G01X25514Y20167D01*
G01X25567Y20116D01*
G01X25618Y19959D01*
G01X25618Y19855D01*
G01X25567Y19700D01*
G01X25463Y19596D01*
G01X25308Y19545D01*
G01X25151Y19545D01*
G01X24996Y19596D01*
G01X24942Y19646D01*
G01X24892Y19751D01*
G01X25961Y20634D02*
G01X26377Y19545D01*
G01X26794Y20634D02*
G01X26377Y19545D01*
G01X27241Y20634D02*
G01X27813Y20634D01*
G01X27500Y20218D01*
G01X27655Y20218D01*
G01X27759Y20167D01*
G01X27813Y20116D01*
G01X27863Y19959D01*
G01X27863Y19855D01*
G01X27813Y19700D01*
G01X27708Y19596D01*
G01X27551Y19545D01*
G01X27396Y19545D01*
G01X27241Y19596D01*
G01X27188Y19646D01*
G01X27137Y19751D01*
G01X28206Y20012D02*
G01X29141Y20012D01*
G01X29484Y20426D02*
G01X29588Y20480D01*
G01X29743Y20634D01*
G01X29743Y19545D01*
G01X24615Y30186D02*
G01X25186Y30186D01*
G01X24874Y29770D01*
G01X25031Y29770D01*
G01X25133Y29719D01*
G01X25186Y29668D01*
G01X25237Y29510D01*
G01X25237Y29406D01*
G01X25186Y29251D01*
G01X25082Y29147D01*
G01X24927Y29096D01*
G01X24770Y29096D01*
G01X24615Y29147D01*
G01X24561Y29198D01*
G01X24511Y29302D01*
G01X25580Y30186D02*
G01X25996Y29096D01*
G01X26413Y30186D02*
G01X25996Y29096D01*
G01X26860Y30186D02*
G01X27432Y30186D01*
G01X27119Y29770D01*
G01X27274Y29770D01*
G01X27378Y29719D01*
G01X27432Y29668D01*
G01X27482Y29510D01*
G01X27482Y29406D01*
G01X27432Y29251D01*
G01X27327Y29147D01*
G01X27170Y29096D01*
G01X27015Y29096D01*
G01X26860Y29147D01*
G01X26807Y29198D01*
G01X26756Y29302D01*
G01X27825Y29564D02*
G01X28760Y29564D01*
G01X29156Y29927D02*
G01X29156Y29978D01*
G01X29207Y30082D01*
G01X29260Y30135D01*
G01X29362Y30186D01*
G01X29570Y30186D01*
G01X29674Y30135D01*
G01X29728Y30082D01*
G01X29778Y29978D01*
G01X29778Y29874D01*
G01X29728Y29770D01*
G01X29624Y29615D01*
G01X29103Y29096D01*
G01X29832Y29096D01*
G01X14368Y2341D02*
G01X14315Y2446D01*
G01X14211Y2550D01*
G01X14109Y2600D01*
G01X13901Y2600D01*
G01X13797Y2550D01*
G01X13693Y2446D01*
G01X13639Y2341D01*
G01X13589Y2184D01*
G01X13589Y1925D01*
G01X13639Y1770D01*
G01X13693Y1666D01*
G01X13797Y1562D01*
G01X13901Y1511D01*
G01X14109Y1511D01*
G01X14211Y1562D01*
G01X14315Y1666D01*
G01X14368Y1770D01*
G01X14368Y1925D01*
G01X14109Y1925D02*
G01X14368Y1925D01*
G01X14711Y2600D02*
G01X14711Y1511D01*
G01X14711Y2600D02*
G01X15438Y1511D01*
G01X15438Y2600D02*
G01X15438Y1511D01*
G01X15781Y2600D02*
G01X15781Y1511D01*
G01X15781Y2600D02*
G01X16144Y2600D01*
G01X16301Y2550D01*
G01X16405Y2446D01*
G01X16456Y2341D01*
G01X16510Y2184D01*
G01X16510Y1925D01*
G01X16456Y1770D01*
G01X16405Y1666D01*
G01X16301Y1562D01*
G01X16144Y1511D01*
G01X15781Y1511D01*
G01X70104Y10855D02*
G01X70104Y9766D01*
G01X70104Y10855D02*
G01X70467Y10855D01*
G01X70624Y10805D01*
G01X70726Y10701D01*
G01X70779Y10596D01*
G01X70830Y10439D01*
G01X70830Y10180D01*
G01X70779Y10025D01*
G01X70726Y9921D01*
G01X70624Y9817D01*
G01X70467Y9766D01*
G01X70104Y9766D01*
G01X71173Y10855D02*
G01X71173Y10076D01*
G01X71226Y9921D01*
G01X71330Y9817D01*
G01X71485Y9766D01*
G01X71589Y9766D01*
G01X71744Y9817D01*
G01X71848Y9921D01*
G01X71902Y10076D01*
G01X71902Y10855D01*
G01X72245Y10855D02*
G01X72245Y9766D01*
G01X72245Y10855D02*
G01X72712Y10855D01*
G01X72867Y10805D01*
G01X72920Y10751D01*
G01X72971Y10647D01*
G01X72971Y10492D01*
G01X72920Y10388D01*
G01X72867Y10337D01*
G01X72712Y10284D01*
G01X72245Y10284D01*
G01X73626Y10855D02*
G01X73522Y10805D01*
G01X73418Y10701D01*
G01X73367Y10596D01*
G01X73314Y10439D01*
G01X73314Y10180D01*
G01X73367Y10025D01*
G01X73418Y9921D01*
G01X73522Y9817D01*
G01X73626Y9766D01*
G01X73835Y9766D01*
G01X73939Y9817D01*
G01X74041Y9921D01*
G01X74094Y10025D01*
G01X74145Y10180D01*
G01X74145Y10439D01*
G01X74094Y10596D01*
G01X74041Y10701D01*
G01X73939Y10805D01*
G01X73835Y10855D01*
G01X73626Y10855D01*
G01X74488Y10855D02*
G01X74488Y9766D01*
G01X74488Y10855D02*
G01X75217Y9766D01*
G01X75217Y10855D02*
G01X75217Y9766D01*
G01X75923Y10855D02*
G01X75923Y9766D01*
G01X75559Y10855D02*
G01X76286Y10855D01*
G01X97137Y40599D02*
G01X97241Y40703D01*
G01X97292Y40858D01*
G01X97292Y41066D01*
G01X97241Y41221D01*
G01X97137Y41325D01*
G01X97033Y41325D01*
G01X96928Y41275D01*
G01X96875Y41221D01*
G01X96824Y41117D01*
G01X96720Y40805D01*
G01X96669Y40703D01*
G01X96616Y40650D01*
G01X96512Y40599D01*
G01X96357Y40599D01*
G01X96253Y40703D01*
G01X96202Y40858D01*
G01X96202Y41066D01*
G01X96253Y41221D01*
G01X96357Y41325D01*
G01X97292Y40256D02*
G01X96202Y40256D01*
G01X97292Y40256D02*
G01X97292Y39890D01*
G01X97241Y39735D01*
G01X97137Y39631D01*
G01X97033Y39580D01*
G01X96875Y39527D01*
G01X96616Y39527D01*
G01X96461Y39580D01*
G01X96357Y39631D01*
G01X96253Y39735D01*
G01X96202Y39890D01*
G01X96202Y40256D01*
G01X97292Y39184D02*
G01X96202Y39184D01*
G01X97292Y39184D02*
G01X97292Y38821D01*
G01X97241Y38666D01*
G01X97137Y38562D01*
G01X97033Y38508D01*
G01X96875Y38458D01*
G01X96616Y38458D01*
G01X96461Y38508D01*
G01X96357Y38562D01*
G01X96253Y38666D01*
G01X96202Y38821D01*
G01X96202Y39184D01*
G01X97083Y38115D02*
G01X97137Y38011D01*
G01X97292Y37856D01*
G01X96202Y37856D01*
G01X97292Y37409D02*
G01X97292Y36837D01*
G01X96875Y37147D01*
G01X96875Y36992D01*
G01X96824Y36888D01*
G01X96774Y36837D01*
G01X96616Y36784D01*
G01X96512Y36784D01*
G01X96357Y36837D01*
G01X96253Y36941D01*
G01X96202Y37096D01*
G01X96202Y37251D01*
G01X96253Y37409D01*
G01X96304Y37459D01*
G01X96408Y37513D01*
G01X97292Y36131D02*
G01X97241Y36286D01*
G01X97083Y36390D01*
G01X96824Y36441D01*
G01X96669Y36441D01*
G01X96408Y36390D01*
G01X96253Y36286D01*
G01X96202Y36131D01*
G01X96202Y36027D01*
G01X96253Y35869D01*
G01X96408Y35765D01*
G01X96669Y35714D01*
G01X96824Y35714D01*
G01X97083Y35765D01*
G01X97241Y35869D01*
G01X97292Y36027D01*
G01X97292Y36131D01*
G01X97137Y34747D02*
G01X97241Y34800D01*
G01X97292Y34955D01*
G01X97292Y35059D01*
G01X97241Y35217D01*
G01X97083Y35318D01*
G01X96824Y35372D01*
G01X96565Y35372D01*
G01X96357Y35318D01*
G01X96253Y35217D01*
G01X96202Y35059D01*
G01X96202Y35008D01*
G01X96253Y34851D01*
G01X96357Y34747D01*
G01X96512Y34696D01*
G01X96565Y34696D01*
G01X96720Y34747D01*
G01X96824Y34851D01*
G01X96875Y35008D01*
G01X96875Y35059D01*
G01X96824Y35217D01*
G01X96720Y35318D01*
G01X96565Y35372D01*
G54D30*
G01X89654Y54114D02*
G01X89654Y54569D01*
G01X89245Y54615D01*
G01X89291Y54569D01*
G01X89336Y54434D01*
G01X89336Y54297D01*
G01X89291Y54160D01*
G01X89199Y54068D01*
G01X89065Y54023D01*
G01X88973Y54023D01*
G01X88836Y54068D01*
G01X88745Y54160D01*
G01X88699Y54297D01*
G01X88699Y54434D01*
G01X88745Y54569D01*
G01X88790Y54615D01*
G01X88882Y54660D01*
G01X89654Y53723D02*
G01X88699Y53360D01*
G01X89654Y52997D02*
G01X88699Y53360D01*
G01X87020Y53853D02*
G01X87111Y53896D01*
G01X87203Y53987D01*
G01X87249Y54079D01*
G01X87249Y54262D01*
G01X87203Y54350D01*
G01X87111Y54442D01*
G01X87020Y54488D01*
G01X86885Y54533D01*
G01X86657Y54533D01*
G01X86520Y54488D01*
G01X86431Y54442D01*
G01X86339Y54350D01*
G01X86293Y54262D01*
G01X86293Y54079D01*
G01X86339Y53987D01*
G01X86431Y53896D01*
G01X86520Y53853D01*
G01X86657Y53853D01*
G01X86657Y54079D02*
G01X86657Y53853D01*
G01X87249Y53550D02*
G01X86293Y53550D01*
G01X87249Y53550D02*
G01X86293Y52915D01*
G01X87249Y52915D02*
G01X86293Y52915D01*
G01X87249Y52616D02*
G01X86293Y52616D01*
G01X87249Y52616D02*
G01X87249Y52298D01*
G01X87203Y52161D01*
G01X87111Y52070D01*
G01X87020Y52024D01*
G01X86885Y51978D01*
G01X86657Y51978D01*
G01X86520Y52024D01*
G01X86431Y52070D01*
G01X86339Y52161D01*
G01X86293Y52298D01*
G01X86293Y52616D01*
G01X92191Y53896D02*
G01X92283Y53987D01*
G01X92329Y54124D01*
G01X92329Y54307D01*
G01X92283Y54442D01*
G01X92191Y54533D01*
G01X92100Y54533D01*
G01X92008Y54488D01*
G01X91965Y54442D01*
G01X91920Y54350D01*
G01X91828Y54079D01*
G01X91782Y53987D01*
G01X91737Y53941D01*
G01X91645Y53896D01*
G01X91511Y53896D01*
G01X91419Y53987D01*
G01X91373Y54124D01*
G01X91373Y54307D01*
G01X91419Y54442D01*
G01X91511Y54533D01*
G01X92100Y52915D02*
G01X92191Y52961D01*
G01X92283Y53052D01*
G01X92329Y53141D01*
G01X92329Y53324D01*
G01X92283Y53416D01*
G01X92191Y53507D01*
G01X92100Y53550D01*
G01X91965Y53596D01*
G01X91737Y53596D01*
G01X91600Y53550D01*
G01X91511Y53507D01*
G01X91419Y53416D01*
G01X91373Y53324D01*
G01X91373Y53141D01*
G01X91419Y53052D01*
G01X91511Y52961D01*
G01X91600Y52915D01*
G01X92329Y52616D02*
G01X91373Y52616D01*
G01X91373Y52616D02*
G01X91373Y52070D01*
G01X94731Y53896D02*
G01X94823Y53987D01*
G01X94869Y54124D01*
G01X94869Y54307D01*
G01X94823Y54442D01*
G01X94731Y54533D01*
G01X94640Y54533D01*
G01X94548Y54488D01*
G01X94505Y54442D01*
G01X94460Y54350D01*
G01X94368Y54079D01*
G01X94322Y53987D01*
G01X94277Y53941D01*
G01X94185Y53896D01*
G01X94051Y53896D01*
G01X93959Y53987D01*
G01X93913Y54124D01*
G01X93913Y54307D01*
G01X93959Y54442D01*
G01X94051Y54533D01*
G01X94869Y53596D02*
G01X93913Y53596D01*
G01X94869Y53596D02*
G01X94869Y53279D01*
G01X94823Y53141D01*
G01X94731Y53052D01*
G01X94640Y53007D01*
G01X94505Y52961D01*
G01X94277Y52961D01*
G01X94140Y53007D01*
G01X94051Y53052D01*
G01X93959Y53141D01*
G01X93913Y53279D01*
G01X93913Y53596D01*
G01X94869Y52298D02*
G01X93913Y52661D01*
G01X94869Y52298D02*
G01X93913Y51932D01*
G01X94231Y52524D02*
G01X94231Y52070D01*
G54D29*
G01X5831Y31673D02*
G01X6921Y31673D01*
G01X5831Y31673D02*
G01X5831Y32037D01*
G01X5882Y32194D01*
G01X5986Y32296D01*
G01X6090Y32349D01*
G01X6248Y32400D01*
G01X6507Y32400D01*
G01X6662Y32349D01*
G01X6766Y32296D01*
G01X6870Y32194D01*
G01X6921Y32037D01*
G01X6921Y31673D01*
G01X6040Y32743D02*
G01X5986Y32847D01*
G01X5831Y33004D01*
G01X6921Y33004D01*
G01X5831Y15798D02*
G01X6921Y15798D01*
G01X5831Y15798D02*
G01X5831Y16162D01*
G01X5882Y16319D01*
G01X5986Y16421D01*
G01X6090Y16474D01*
G01X6248Y16525D01*
G01X6507Y16525D01*
G01X6662Y16474D01*
G01X6766Y16421D01*
G01X6870Y16319D01*
G01X6921Y16162D01*
G01X6921Y15798D01*
G01X6090Y16921D02*
G01X6040Y16921D01*
G01X5935Y16972D01*
G01X5882Y17025D01*
G01X5831Y17129D01*
G01X5831Y17335D01*
G01X5882Y17439D01*
G01X5935Y17492D01*
G01X6040Y17543D01*
G01X6144Y17543D01*
G01X6248Y17492D01*
G01X6403Y17388D01*
G01X6921Y16868D01*
G01X6921Y17597D01*
G01X81026Y16697D02*
G01X81026Y15608D01*
G01X81026Y16697D02*
G01X81701Y16697D01*
G01X81026Y16179D02*
G01X81442Y16179D01*
G01X81026Y15608D02*
G01X81701Y15608D01*
G01X82044Y16697D02*
G01X82044Y15608D01*
G01X82044Y16697D02*
G01X82770Y15608D01*
G01X82770Y16697D02*
G01X82770Y15608D01*
G01X83893Y16438D02*
G01X83842Y16543D01*
G01X83738Y16647D01*
G01X83634Y16697D01*
G01X83426Y16697D01*
G01X83322Y16647D01*
G01X83218Y16543D01*
G01X83167Y16438D01*
G01X83113Y16281D01*
G01X83113Y16022D01*
G01X83167Y15867D01*
G01X83218Y15763D01*
G01X83322Y15659D01*
G01X83426Y15608D01*
G01X83634Y15608D01*
G01X83738Y15659D01*
G01X83842Y15763D01*
G01X83893Y15867D01*
G01X84548Y16697D02*
G01X84444Y16647D01*
G01X84340Y16543D01*
G01X84289Y16438D01*
G01X84236Y16281D01*
G01X84236Y16022D01*
G01X84289Y15867D01*
G01X84340Y15763D01*
G01X84444Y15659D01*
G01X84548Y15608D01*
G01X84757Y15608D01*
G01X84861Y15659D01*
G01X84963Y15763D01*
G01X85016Y15867D01*
G01X85067Y16022D01*
G01X85067Y16281D01*
G01X85016Y16438D01*
G01X84963Y16543D01*
G01X84861Y16647D01*
G01X84757Y16697D01*
G01X84548Y16697D01*
G01X85410Y16697D02*
G01X85410Y15608D01*
G01X85410Y16697D02*
G01X85775Y16697D01*
G01X85930Y16647D01*
G01X86034Y16543D01*
G01X86085Y16438D01*
G01X86139Y16281D01*
G01X86139Y16022D01*
G01X86085Y15867D01*
G01X86034Y15763D01*
G01X85930Y15659D01*
G01X85775Y15608D01*
G01X85410Y15608D01*
G01X86481Y16697D02*
G01X86481Y15608D01*
G01X86481Y16697D02*
G01X87157Y16697D01*
G01X86481Y16179D02*
G01X86895Y16179D01*
G01X86481Y15608D02*
G01X87157Y15608D01*
G01X87500Y16697D02*
G01X87500Y15608D01*
G01X87500Y16697D02*
G01X87967Y16697D01*
G01X88122Y16647D01*
G01X88176Y16593D01*
G01X88226Y16489D01*
G01X88226Y16385D01*
G01X88176Y16281D01*
G01X88122Y16230D01*
G01X87967Y16179D01*
G01X87500Y16179D01*
G01X87863Y16179D02*
G01X88226Y15608D01*
G01X88569Y15242D02*
G01X89504Y15242D01*
G01X89847Y16697D02*
G01X89847Y15608D01*
G01X89847Y16697D02*
G01X90314Y16697D01*
G01X90472Y16647D01*
G01X90523Y16593D01*
G01X90576Y16489D01*
G01X90576Y16385D01*
G01X90523Y16281D01*
G01X90472Y16230D01*
G01X90314Y16179D01*
G01X89847Y16179D01*
G01X90210Y16179D02*
G01X90576Y15608D01*
G01X91229Y16697D02*
G01X91125Y16647D01*
G01X91020Y16543D01*
G01X90970Y16438D01*
G01X90919Y16281D01*
G01X90919Y16022D01*
G01X90970Y15867D01*
G01X91020Y15763D01*
G01X91125Y15659D01*
G01X91229Y15608D01*
G01X91437Y15608D01*
G01X91541Y15659D01*
G01X91645Y15763D01*
G01X91696Y15867D01*
G01X91749Y16022D01*
G01X91749Y16281D01*
G01X91696Y16438D01*
G01X91645Y16543D01*
G01X91541Y16647D01*
G01X91437Y16697D01*
G01X91229Y16697D01*
G01X92456Y16697D02*
G01X92456Y15608D01*
G01X92092Y16697D02*
G01X92819Y16697D01*
G01X93578Y16697D02*
G01X93162Y15608D01*
G01X93578Y16697D02*
G01X93992Y15608D01*
G01X93319Y15971D02*
G01X93837Y15971D01*
G01X94701Y16697D02*
G01X94701Y15608D01*
G01X94335Y16697D02*
G01X95064Y16697D01*
G01X95719Y16697D02*
G01X95615Y16647D01*
G01X95511Y16543D01*
G01X95458Y16438D01*
G01X95407Y16281D01*
G01X95407Y16022D01*
G01X95458Y15867D01*
G01X95511Y15763D01*
G01X95615Y15659D01*
G01X95719Y15608D01*
G01X95925Y15608D01*
G01X96029Y15659D01*
G01X96133Y15763D01*
G01X96187Y15867D01*
G01X96238Y16022D01*
G01X96238Y16281D01*
G01X96187Y16438D01*
G01X96133Y16543D01*
G01X96029Y16647D01*
G01X95925Y16697D01*
G01X95719Y16697D01*
G01X96580Y16697D02*
G01X96580Y15608D01*
G01X96580Y16697D02*
G01X97048Y16697D01*
G01X97205Y16647D01*
G01X97256Y16593D01*
G01X97307Y16489D01*
G01X97307Y16385D01*
G01X97256Y16281D01*
G01X97205Y16230D01*
G01X97048Y16179D01*
G01X96580Y16179D01*
G01X96944Y16179D02*
G01X97307Y15608D01*
G01X97650Y16697D02*
G01X97650Y15608D01*
G01X98305Y16697D02*
G01X98201Y16647D01*
G01X98097Y16543D01*
G01X98046Y16438D01*
G01X97993Y16281D01*
G01X97993Y16022D01*
G01X98046Y15867D01*
G01X98097Y15763D01*
G01X98201Y15659D01*
G01X98305Y15608D01*
G01X98513Y15608D01*
G01X98618Y15659D01*
G01X98722Y15763D01*
G01X98772Y15867D01*
G01X98826Y16022D01*
G01X98826Y16281D01*
G01X98772Y16438D01*
G01X98722Y16543D01*
G01X98618Y16647D01*
G01X98513Y16697D01*
G01X98305Y16697D01*
G01X12971Y26752D02*
G01X12918Y26856D01*
G01X12814Y26960D01*
G01X12712Y27011D01*
G01X12504Y27011D01*
G01X12400Y26960D01*
G01X12296Y26856D01*
G01X12242Y26752D01*
G01X12192Y26595D01*
G01X12192Y26335D01*
G01X12242Y26181D01*
G01X12296Y26076D01*
G01X12400Y25972D01*
G01X12504Y25921D01*
G01X12712Y25921D01*
G01X12814Y25972D01*
G01X12918Y26076D01*
G01X12971Y26181D01*
G01X13314Y26803D02*
G01X13418Y26856D01*
G01X13573Y27011D01*
G01X13573Y25921D01*
G01X13916Y26389D02*
G01X14851Y26389D01*
G01X15298Y27011D02*
G01X15869Y27011D01*
G01X15557Y26595D01*
G01X15714Y26595D01*
G01X15819Y26544D01*
G01X15869Y26493D01*
G01X15923Y26335D01*
G01X15923Y26231D01*
G01X15869Y26076D01*
G01X15765Y25972D01*
G01X15610Y25921D01*
G01X15455Y25921D01*
G01X15298Y25972D01*
G01X15247Y26023D01*
G01X15194Y26127D01*
G01X16266Y27011D02*
G01X16680Y25921D01*
G01X17096Y27011D02*
G01X16680Y25921D01*
G01X17543Y27011D02*
G01X18115Y27011D01*
G01X17802Y26595D01*
G01X17957Y26595D01*
G01X18061Y26544D01*
G01X18115Y26493D01*
G01X18166Y26335D01*
G01X18166Y26231D01*
G01X18115Y26076D01*
G01X18011Y25972D01*
G01X17856Y25921D01*
G01X17698Y25921D01*
G01X17543Y25972D01*
G01X17490Y26023D01*
G01X17439Y26127D01*
G01X13225Y22534D02*
G01X13172Y22639D01*
G01X13068Y22743D01*
G01X12966Y22793D01*
G01X12758Y22793D01*
G01X12654Y22743D01*
G01X12550Y22639D01*
G01X12496Y22534D01*
G01X12446Y22377D01*
G01X12446Y22118D01*
G01X12496Y21963D01*
G01X12550Y21859D01*
G01X12654Y21755D01*
G01X12758Y21704D01*
G01X12966Y21704D01*
G01X13068Y21755D01*
G01X13172Y21859D01*
G01X13225Y21963D01*
G01X13619Y22534D02*
G01X13619Y22585D01*
G01X13672Y22689D01*
G01X13723Y22743D01*
G01X13827Y22793D01*
G01X14036Y22793D01*
G01X14140Y22743D01*
G01X14190Y22689D01*
G01X14244Y22585D01*
G01X14244Y22481D01*
G01X14190Y22377D01*
G01X14086Y22222D01*
G01X13568Y21704D01*
G01X14295Y21704D01*
G01X14638Y22171D02*
G01X15572Y22171D01*
G01X16540Y22793D02*
G01X16019Y22793D01*
G01X15968Y22326D01*
G01X16019Y22377D01*
G01X16177Y22430D01*
G01X16332Y22430D01*
G01X16487Y22377D01*
G01X16591Y22275D01*
G01X16644Y22118D01*
G01X16644Y22014D01*
G01X16591Y21859D01*
G01X16487Y21755D01*
G01X16332Y21704D01*
G01X16177Y21704D01*
G01X16019Y21755D01*
G01X15968Y21805D01*
G01X15915Y21910D01*
G01X16987Y22793D02*
G01X17401Y21704D01*
G01X17818Y22793D02*
G01X17401Y21704D01*
G01X48260Y18050D02*
G01X48519Y16960D01*
G01X48780Y18050D02*
G01X48519Y16960D01*
G01X48780Y18050D02*
G01X49039Y16960D01*
G01X49298Y18050D02*
G01X49039Y16960D01*
G01X49641Y18050D02*
G01X49641Y16960D01*
G01X49641Y18050D02*
G01X50317Y18050D01*
G01X49641Y17532D02*
G01X50058Y17532D01*
G01X49641Y16960D02*
G01X50317Y16960D01*
G01X50660Y18050D02*
G01X50660Y16960D01*
G01X50660Y18050D02*
G01X51076Y16960D01*
G01X51490Y18050D02*
G01X51076Y16960D01*
G01X51490Y18050D02*
G01X51490Y16960D01*
G01X52146Y18050D02*
G01X52042Y17999D01*
G01X51937Y17895D01*
G01X51887Y17791D01*
G01X51833Y17633D01*
G01X51833Y17374D01*
G01X51887Y17219D01*
G01X51937Y17115D01*
G01X52042Y17011D01*
G01X52146Y16960D01*
G01X52354Y16960D01*
G01X52458Y17011D01*
G01X52562Y17115D01*
G01X52613Y17219D01*
G01X52666Y17374D01*
G01X52666Y17633D01*
G01X52613Y17791D01*
G01X52562Y17895D01*
G01X52458Y17999D01*
G01X52354Y18050D01*
G01X52146Y18050D01*
G01X53736Y17895D02*
G01X53632Y17999D01*
G01X53477Y18050D01*
G01X53268Y18050D01*
G01X53111Y17999D01*
G01X53009Y17895D01*
G01X53009Y17791D01*
G01X53060Y17687D01*
G01X53111Y17633D01*
G01X53215Y17583D01*
G01X53527Y17479D01*
G01X53632Y17428D01*
G01X53682Y17374D01*
G01X53736Y17270D01*
G01X53736Y17115D01*
G01X53632Y17011D01*
G01X53477Y16960D01*
G01X53268Y16960D01*
G01X53111Y17011D01*
G01X53009Y17115D01*
G01X54079Y16595D02*
G01X55013Y16595D01*
G01X55356Y18050D02*
G01X55356Y16960D01*
G01X55356Y18050D02*
G01X55773Y16960D01*
G01X56187Y18050D02*
G01X55773Y16960D01*
G01X56187Y18050D02*
G01X56187Y16960D01*
G01X56530Y18050D02*
G01X56530Y16960D01*
G01X56873Y18050D02*
G01X56873Y16960D01*
G01X56873Y18050D02*
G01X57602Y16960D01*
G01X57602Y18050D02*
G01X57602Y16960D01*
G01X57945Y18050D02*
G01X57945Y16960D01*
G01X58287Y16595D02*
G01X59222Y16595D01*
G01X59565Y18050D02*
G01X59565Y16960D01*
G01X59565Y18050D02*
G01X59928Y18050D01*
G01X60083Y17999D01*
G01X60187Y17895D01*
G01X60241Y17791D01*
G01X60292Y17633D01*
G01X60292Y17374D01*
G01X60241Y17219D01*
G01X60187Y17115D01*
G01X60083Y17011D01*
G01X59928Y16960D01*
G01X59565Y16960D01*
G01X60634Y17842D02*
G01X60739Y17895D01*
G01X60896Y18050D01*
G01X60896Y16960D01*
G01X52705Y5770D02*
G01X52819Y5285D01*
G01X52936Y5770D02*
G01X52819Y5285D01*
G01X52936Y5770D02*
G01X53050Y5285D01*
G01X53167Y5770D02*
G01X53050Y5285D01*
G01X53319Y5770D02*
G01X53319Y5285D01*
G01X53319Y5285D02*
G01X53596Y5285D01*
G01X53748Y5770D02*
G01X53748Y5285D01*
G01X53748Y5770D02*
G01X54048Y5770D01*
G01X53748Y5539D02*
G01X53934Y5539D01*
G01X53748Y5285D02*
G01X54048Y5285D01*
G01X54201Y5770D02*
G01X54201Y5285D01*
G01X54201Y5770D02*
G01X54363Y5770D01*
G01X54432Y5748D01*
G01X54477Y5702D01*
G01X54500Y5654D01*
G01X54523Y5585D01*
G01X54523Y5471D01*
G01X54500Y5400D01*
G01X54477Y5354D01*
G01X54432Y5308D01*
G01X54363Y5285D01*
G01X54201Y5285D01*
G01X55031Y5770D02*
G01X55031Y5285D01*
G01X55031Y5770D02*
G01X55217Y5285D01*
G01X55402Y5770D02*
G01X55217Y5285D01*
G01X55402Y5770D02*
G01X55402Y5285D01*
G01X55692Y5770D02*
G01X55646Y5748D01*
G01X55600Y5702D01*
G01X55577Y5654D01*
G01X55554Y5585D01*
G01X55554Y5471D01*
G01X55577Y5400D01*
G01X55600Y5354D01*
G01X55646Y5308D01*
G01X55692Y5285D01*
G01X55786Y5285D01*
G01X55831Y5308D01*
G01X55877Y5354D01*
G01X55900Y5400D01*
G01X55923Y5471D01*
G01X55923Y5585D01*
G01X55900Y5654D01*
G01X55877Y5702D01*
G01X55831Y5748D01*
G01X55786Y5770D01*
G01X55692Y5770D01*
G01X56075Y5770D02*
G01X56075Y5285D01*
G01X56075Y5770D02*
G01X56238Y5770D01*
G01X56306Y5748D01*
G01X56352Y5702D01*
G01X56375Y5654D01*
G01X56400Y5585D01*
G01X56400Y5471D01*
G01X56375Y5400D01*
G01X56352Y5354D01*
G01X56306Y5308D01*
G01X56238Y5285D01*
G01X56075Y5285D01*
G01X51112Y6913D02*
G01X50927Y6428D01*
G01X51112Y6913D02*
G01X51295Y6428D01*
G01X50995Y6591D02*
G01X51226Y6591D01*
G01X51447Y6751D02*
G01X51447Y6428D01*
G01X51447Y6659D02*
G01X51518Y6728D01*
G01X51564Y6751D01*
G01X51633Y6751D01*
G01X51678Y6728D01*
G01X51701Y6659D01*
G01X51701Y6428D01*
G01X51925Y6913D02*
G01X51925Y6520D01*
G01X51948Y6451D01*
G01X51993Y6428D01*
G01X52039Y6428D01*
G01X51854Y6751D02*
G01X52016Y6751D01*
G01X52191Y6614D02*
G01X52468Y6614D01*
G01X52468Y6659D01*
G01X52445Y6705D01*
G01X52423Y6728D01*
G01X52377Y6751D01*
G01X52308Y6751D01*
G01X52260Y6728D01*
G01X52214Y6682D01*
G01X52191Y6614D01*
G01X52191Y6565D01*
G01X52214Y6497D01*
G01X52260Y6451D01*
G01X52308Y6428D01*
G01X52377Y6428D01*
G01X52423Y6451D01*
G01X52468Y6497D01*
G01X52621Y6751D02*
G01X52621Y6428D01*
G01X52621Y6659D02*
G01X52692Y6728D01*
G01X52738Y6751D01*
G01X52806Y6751D01*
G01X52852Y6728D01*
G01X52875Y6659D01*
G01X52875Y6428D01*
G01X53304Y6751D02*
G01X53304Y6428D01*
G01X53304Y6682D02*
G01X53258Y6728D01*
G01X53213Y6751D01*
G01X53144Y6751D01*
G01X53098Y6728D01*
G01X53050Y6682D01*
G01X53027Y6614D01*
G01X53027Y6565D01*
G01X53050Y6497D01*
G01X53098Y6451D01*
G01X53144Y6428D01*
G01X53213Y6428D01*
G01X53258Y6451D01*
G01X53304Y6497D01*
G01X53812Y6913D02*
G01X53812Y6428D01*
G01X53812Y6659D02*
G01X53883Y6728D01*
G01X53929Y6751D01*
G01X53997Y6751D01*
G01X54043Y6728D01*
G01X54066Y6659D01*
G01X54066Y6428D01*
G01X54495Y6751D02*
G01X54495Y6428D01*
G01X54495Y6682D02*
G01X54449Y6728D01*
G01X54404Y6751D01*
G01X54335Y6751D01*
G01X54289Y6728D01*
G01X54241Y6682D01*
G01X54218Y6614D01*
G01X54218Y6565D01*
G01X54241Y6497D01*
G01X54289Y6451D01*
G01X54335Y6428D01*
G01X54404Y6428D01*
G01X54449Y6451D01*
G01X54495Y6497D01*
G01X54927Y6682D02*
G01X54879Y6728D01*
G01X54833Y6751D01*
G01X54764Y6751D01*
G01X54719Y6728D01*
G01X54673Y6682D01*
G01X54648Y6614D01*
G01X54648Y6565D01*
G01X54673Y6497D01*
G01X54719Y6451D01*
G01X54764Y6428D01*
G01X54833Y6428D01*
G01X54879Y6451D01*
G01X54927Y6497D01*
G01X55079Y6913D02*
G01X55102Y6891D01*
G01X55125Y6913D01*
G01X55102Y6936D01*
G01X55079Y6913D01*
G01X55102Y6751D02*
G01X55102Y6428D01*
G01X55554Y6751D02*
G01X55554Y6428D01*
G01X55554Y6682D02*
G01X55509Y6728D01*
G01X55460Y6751D01*
G01X55392Y6751D01*
G01X55346Y6728D01*
G01X55300Y6682D01*
G01X55278Y6614D01*
G01X55278Y6565D01*
G01X55300Y6497D01*
G01X55346Y6451D01*
G01X55392Y6428D01*
G01X55460Y6428D01*
G01X55509Y6451D01*
G01X55554Y6497D01*
G01X56339Y6751D02*
G01X56339Y6428D01*
G01X56339Y6682D02*
G01X56294Y6728D01*
G01X56248Y6751D01*
G01X56177Y6751D01*
G01X56131Y6728D01*
G01X56085Y6682D01*
G01X56062Y6614D01*
G01X56062Y6565D01*
G01X56085Y6497D01*
G01X56131Y6451D01*
G01X56177Y6428D01*
G01X56248Y6428D01*
G01X56294Y6451D01*
G01X56339Y6497D01*
G01X56492Y6751D02*
G01X56492Y6428D01*
G01X56492Y6614D02*
G01X56515Y6682D01*
G01X56560Y6728D01*
G01X56606Y6751D01*
G01X56677Y6751D01*
G01X56829Y6751D02*
G01X56829Y6428D01*
G01X56829Y6614D02*
G01X56852Y6682D01*
G01X56898Y6728D01*
G01X56944Y6751D01*
G01X57012Y6751D01*
G01X57165Y6913D02*
G01X57188Y6891D01*
G01X57213Y6913D01*
G01X57188Y6936D01*
G01X57165Y6913D01*
G01X57188Y6751D02*
G01X57188Y6428D01*
G01X57365Y6913D02*
G01X57365Y6428D01*
G01X57365Y6682D02*
G01X57411Y6728D01*
G01X57457Y6751D01*
G01X57525Y6751D01*
G01X57571Y6728D01*
G01X57619Y6682D01*
G01X57642Y6614D01*
G01X57642Y6565D01*
G01X57619Y6497D01*
G01X57571Y6451D01*
G01X57525Y6428D01*
G01X57457Y6428D01*
G01X57411Y6451D01*
G01X57365Y6497D01*
G01X58072Y6751D02*
G01X58072Y6428D01*
G01X58072Y6682D02*
G01X58026Y6728D01*
G01X57978Y6751D01*
G01X57909Y6751D01*
G01X57863Y6728D01*
G01X57818Y6682D01*
G01X57795Y6614D01*
G01X57795Y6565D01*
G01X57818Y6497D01*
G01X57863Y6451D01*
G01X57909Y6428D01*
G01X57978Y6428D01*
G01X58026Y6451D01*
G01X58072Y6497D01*
G01X56896Y40685D02*
G01X56896Y41170D01*
G01X56896Y40685D02*
G01X56596Y40685D01*
G01X56896Y40916D02*
G01X56710Y40916D01*
G01X56896Y41170D02*
G01X56596Y41170D01*
G01X56189Y40916D02*
G01X56212Y40871D01*
G01X56281Y40848D01*
G01X56349Y40848D01*
G01X56421Y40871D01*
G01X56443Y40916D01*
G01X56421Y40962D01*
G01X56375Y40985D01*
G01X56258Y41008D01*
G01X56212Y41033D01*
G01X56189Y41079D01*
G01X56189Y41102D01*
G01X56212Y41148D01*
G01X56281Y41170D01*
G01X56349Y41170D01*
G01X56421Y41148D01*
G01X56443Y41102D01*
G01X55968Y40685D02*
G01X55968Y41079D01*
G01X55943Y41148D01*
G01X55897Y41170D01*
G01X55852Y41170D01*
G01X56037Y40848D02*
G01X55874Y40848D01*
G01X55699Y40985D02*
G01X55422Y40985D01*
G01X55422Y40939D01*
G01X55445Y40894D01*
G01X55468Y40871D01*
G01X55514Y40848D01*
G01X55585Y40848D01*
G01X55631Y40871D01*
G01X55676Y40916D01*
G01X55699Y40985D01*
G01X55699Y41033D01*
G01X55676Y41102D01*
G01X55631Y41148D01*
G01X55585Y41170D01*
G01X55514Y41170D01*
G01X55468Y41148D01*
G01X55422Y41102D01*
G01X54914Y40685D02*
G01X54914Y41170D01*
G01X54485Y40848D02*
G01X54485Y41170D01*
G01X54485Y40916D02*
G01X54531Y40871D01*
G01X54576Y40848D01*
G01X54648Y40848D01*
G01X54693Y40871D01*
G01X54739Y40916D01*
G01X54762Y40985D01*
G01X54762Y41033D01*
G01X54739Y41102D01*
G01X54693Y41148D01*
G01X54648Y41170D01*
G01X54576Y41170D01*
G01X54531Y41148D01*
G01X54485Y41102D01*
G01X54056Y40685D02*
G01X54056Y41170D01*
G01X54056Y40916D02*
G01X54102Y40871D01*
G01X54147Y40848D01*
G01X54216Y40848D01*
G01X54264Y40871D01*
G01X54310Y40916D01*
G01X54333Y40985D01*
G01X54333Y41033D01*
G01X54310Y41102D01*
G01X54264Y41148D01*
G01X54216Y41170D01*
G01X54147Y41170D01*
G01X54102Y41148D01*
G01X54056Y41102D01*
G01X53787Y40848D02*
G01X53835Y40871D01*
G01X53881Y40916D01*
G01X53903Y40985D01*
G01X53903Y41033D01*
G01X53881Y41102D01*
G01X53835Y41148D01*
G01X53787Y41170D01*
G01X53718Y41170D01*
G01X53672Y41148D01*
G01X53627Y41102D01*
G01X53604Y41033D01*
G01X53604Y40985D01*
G01X53627Y40916D01*
G01X53672Y40871D01*
G01X53718Y40848D01*
G01X53787Y40848D01*
G01X53096Y40985D02*
G01X52819Y40985D01*
G01X52819Y40939D01*
G01X52842Y40894D01*
G01X52865Y40871D01*
G01X52910Y40848D01*
G01X52979Y40848D01*
G01X53025Y40871D01*
G01X53073Y40916D01*
G01X53096Y40985D01*
G01X53096Y41033D01*
G01X53073Y41102D01*
G01X53025Y41148D01*
G01X52979Y41170D01*
G01X52910Y41170D01*
G01X52865Y41148D01*
G01X52819Y41102D01*
G01X52666Y40685D02*
G01X52666Y41170D01*
G01X52158Y40685D02*
G01X52158Y41033D01*
G01X52133Y41102D01*
G01X52087Y41148D01*
G01X52019Y41170D01*
G01X51973Y41170D01*
G01X51904Y41148D01*
G01X51856Y41102D01*
G01X51833Y41033D01*
G01X51833Y40685D01*
G01X51358Y40754D02*
G01X51404Y40708D01*
G01X51473Y40685D01*
G01X51567Y40685D01*
G01X51635Y40708D01*
G01X51681Y40754D01*
G01X51681Y40802D01*
G01X51658Y40848D01*
G01X51635Y40871D01*
G01X51589Y40894D01*
G01X51450Y40939D01*
G01X51404Y40962D01*
G01X51381Y40985D01*
G01X51358Y41033D01*
G01X51358Y41102D01*
G01X51404Y41148D01*
G01X51473Y41170D01*
G01X51567Y41170D01*
G01X51635Y41148D01*
G01X51681Y41102D01*
G01X51206Y40685D02*
G01X51206Y41170D01*
G01X51206Y40685D02*
G01X50998Y40685D01*
G01X50929Y40708D01*
G01X50906Y40731D01*
G01X50883Y40779D01*
G01X50883Y40825D01*
G01X50906Y40871D01*
G01X50929Y40894D01*
G01X50998Y40916D01*
G01X51206Y40916D02*
G01X50998Y40916D01*
G01X50929Y40939D01*
G01X50906Y40962D01*
G01X50883Y41008D01*
G01X50883Y41079D01*
G01X50906Y41125D01*
G01X50929Y41148D01*
G01X50998Y41170D01*
G01X51206Y41170D01*
G01X68394Y31300D02*
G01X68775Y31300D01*
G01X68567Y31023D01*
G01X68671Y31023D01*
G01X68742Y30988D01*
G01X68775Y30952D01*
G01X68811Y30848D01*
G01X68811Y30779D01*
G01X68775Y30675D01*
G01X68707Y30607D01*
G01X68602Y30571D01*
G01X68498Y30571D01*
G01X68394Y30607D01*
G01X68361Y30642D01*
G01X68326Y30711D01*
G01X69039Y31300D02*
G01X69316Y30571D01*
G01X69593Y31300D02*
G01X69316Y30571D01*
G01X69890Y31300D02*
G01X70271Y31300D01*
G01X70065Y31023D01*
G01X70167Y31023D01*
G01X70238Y30988D01*
G01X70271Y30952D01*
G01X70307Y30848D01*
G01X70307Y30779D01*
G01X70271Y30675D01*
G01X70203Y30607D01*
G01X70098Y30571D01*
G01X69994Y30571D01*
G01X69890Y30607D01*
G01X69857Y30642D01*
G01X69822Y30711D01*
G01X69088Y28760D02*
G01X69088Y28031D01*
G01X69088Y28760D02*
G01X69329Y28760D01*
G01X69433Y28724D01*
G01X69504Y28656D01*
G01X69537Y28587D01*
G01X69573Y28483D01*
G01X69573Y28308D01*
G01X69537Y28206D01*
G01X69504Y28135D01*
G01X69433Y28067D01*
G01X69329Y28031D01*
G01X69088Y28031D01*
G01X69974Y28760D02*
G01X69870Y28724D01*
G01X69837Y28656D01*
G01X69837Y28587D01*
G01X69870Y28516D01*
G01X69938Y28483D01*
G01X70078Y28448D01*
G01X70182Y28412D01*
G01X70251Y28343D01*
G01X70286Y28275D01*
G01X70286Y28171D01*
G01X70251Y28102D01*
G01X70218Y28067D01*
G01X70114Y28031D01*
G01X69974Y28031D01*
G01X69870Y28067D01*
G01X69837Y28102D01*
G01X69801Y28171D01*
G01X69801Y28275D01*
G01X69837Y28343D01*
G01X69905Y28412D01*
G01X70010Y28448D01*
G01X70147Y28483D01*
G01X70218Y28516D01*
G01X70251Y28587D01*
G01X70251Y28656D01*
G01X70218Y28724D01*
G01X70114Y28760D01*
G01X69974Y28760D01*
G01X69215Y26220D02*
G01X69215Y25491D01*
G01X69215Y26220D02*
G01X69456Y26220D01*
G01X69560Y26184D01*
G01X69631Y26116D01*
G01X69664Y26047D01*
G01X69700Y25943D01*
G01X69700Y25768D01*
G01X69664Y25666D01*
G01X69631Y25595D01*
G01X69560Y25527D01*
G01X69456Y25491D01*
G01X69215Y25491D01*
G01X70413Y26220D02*
G01X70065Y25491D01*
G01X69928Y26220D02*
G01X70413Y26220D01*
G01X69215Y23680D02*
G01X69215Y22951D01*
G01X69215Y23680D02*
G01X69456Y23680D01*
G01X69560Y23644D01*
G01X69631Y23576D01*
G01X69664Y23507D01*
G01X69700Y23403D01*
G01X69700Y23228D01*
G01X69664Y23126D01*
G01X69631Y23055D01*
G01X69560Y22987D01*
G01X69456Y22951D01*
G01X69215Y22951D01*
G01X70345Y23576D02*
G01X70309Y23644D01*
G01X70205Y23680D01*
G01X70137Y23680D01*
G01X70032Y23644D01*
G01X69964Y23540D01*
G01X69928Y23368D01*
G01X69928Y23195D01*
G01X69964Y23055D01*
G01X70032Y22987D01*
G01X70137Y22951D01*
G01X70170Y22951D01*
G01X70274Y22987D01*
G01X70345Y23055D01*
G01X70378Y23159D01*
G01X70378Y23195D01*
G01X70345Y23299D01*
G01X70274Y23368D01*
G01X70170Y23403D01*
G01X70137Y23403D01*
G01X70032Y23368D01*
G01X69964Y23299D01*
G01X69928Y23195D01*
G01X69088Y21140D02*
G01X69088Y20411D01*
G01X69088Y21140D02*
G01X69329Y21140D01*
G01X69433Y21104D01*
G01X69504Y21036D01*
G01X69537Y20967D01*
G01X69573Y20863D01*
G01X69573Y20688D01*
G01X69537Y20586D01*
G01X69504Y20515D01*
G01X69433Y20447D01*
G01X69329Y20411D01*
G01X69088Y20411D01*
G01X70218Y21140D02*
G01X69870Y21140D01*
G01X69837Y20828D01*
G01X69870Y20863D01*
G01X69974Y20896D01*
G01X70078Y20896D01*
G01X70182Y20863D01*
G01X70251Y20792D01*
G01X70286Y20688D01*
G01X70286Y20619D01*
G01X70251Y20515D01*
G01X70182Y20447D01*
G01X70078Y20411D01*
G01X69974Y20411D01*
G01X69870Y20447D01*
G01X69837Y20482D01*
G01X69801Y20551D01*
G01X69088Y18473D02*
G01X69088Y17744D01*
G01X69088Y18473D02*
G01X69329Y18473D01*
G01X69433Y18437D01*
G01X69504Y18369D01*
G01X69537Y18300D01*
G01X69573Y18196D01*
G01X69573Y18021D01*
G01X69537Y17919D01*
G01X69504Y17848D01*
G01X69433Y17780D01*
G01X69329Y17744D01*
G01X69088Y17744D01*
G01X70010Y18473D02*
G01X69905Y18437D01*
G01X69837Y18333D01*
G01X69801Y18161D01*
G01X69801Y18056D01*
G01X69837Y17884D01*
G01X69905Y17780D01*
G01X70010Y17744D01*
G01X70078Y17744D01*
G01X70182Y17780D01*
G01X70251Y17884D01*
G01X70286Y18056D01*
G01X70286Y18161D01*
G01X70251Y18333D01*
G01X70182Y18437D01*
G01X70078Y18473D01*
G01X70010Y18473D01*
G01X69364Y16060D02*
G01X69088Y15331D01*
G01X69364Y16060D02*
G01X69641Y15331D01*
G01X69192Y15575D02*
G01X69537Y15575D01*
G01X70078Y16060D02*
G01X69974Y16024D01*
G01X69905Y15920D01*
G01X69870Y15748D01*
G01X69870Y15643D01*
G01X69905Y15471D01*
G01X69974Y15367D01*
G01X70078Y15331D01*
G01X70147Y15331D01*
G01X70251Y15367D01*
G01X70319Y15471D01*
G01X70355Y15643D01*
G01X70355Y15748D01*
G01X70319Y15920D01*
G01X70251Y16024D01*
G01X70147Y16060D01*
G01X70078Y16060D01*
G01X68453Y13393D02*
G01X68453Y12664D01*
G01X68453Y13393D02*
G01X68765Y13393D01*
G01X68869Y13357D01*
G01X68902Y13322D01*
G01X68938Y13253D01*
G01X68938Y13185D01*
G01X68902Y13116D01*
G01X68869Y13081D01*
G01X68765Y13045D01*
G01X68453Y13045D01*
G01X68694Y13045D02*
G01X68938Y12664D01*
G01X69651Y13289D02*
G01X69583Y13357D01*
G01X69479Y13393D01*
G01X69339Y13393D01*
G01X69235Y13357D01*
G01X69166Y13289D01*
G01X69166Y13220D01*
G01X69202Y13149D01*
G01X69235Y13116D01*
G01X69303Y13081D01*
G01X69512Y13012D01*
G01X69583Y12976D01*
G01X69616Y12941D01*
G01X69651Y12872D01*
G01X69651Y12768D01*
G01X69583Y12700D01*
G01X69479Y12664D01*
G01X69339Y12664D01*
G01X69235Y12700D01*
G01X69166Y12768D01*
G01X70121Y13393D02*
G01X70121Y12664D01*
G01X69880Y13393D02*
G01X70365Y13393D01*
G01X38643Y31300D02*
G01X38295Y31300D01*
G01X38262Y30988D01*
G01X38295Y31023D01*
G01X38399Y31056D01*
G01X38503Y31056D01*
G01X38608Y31023D01*
G01X38676Y30952D01*
G01X38712Y30848D01*
G01X38712Y30779D01*
G01X38676Y30675D01*
G01X38608Y30607D01*
G01X38503Y30571D01*
G01X38399Y30571D01*
G01X38295Y30607D01*
G01X38262Y30642D01*
G01X38227Y30711D01*
G01X38940Y31300D02*
G01X39217Y30571D01*
G01X39494Y31300D02*
G01X39217Y30571D01*
G01X38747Y28460D02*
G01X38712Y28529D01*
G01X38643Y28597D01*
G01X38572Y28633D01*
G01X38435Y28633D01*
G01X38366Y28597D01*
G01X38295Y28529D01*
G01X38262Y28460D01*
G01X38227Y28356D01*
G01X38227Y28181D01*
G01X38262Y28079D01*
G01X38295Y28008D01*
G01X38366Y27940D01*
G01X38435Y27904D01*
G01X38572Y27904D01*
G01X38643Y27940D01*
G01X38712Y28008D01*
G01X38747Y28079D01*
G01X38747Y28181D01*
G01X38572Y28181D02*
G01X38747Y28181D01*
G01X38976Y28633D02*
G01X38976Y27904D01*
G01X38976Y28633D02*
G01X39458Y27904D01*
G01X39458Y28633D02*
G01X39458Y27904D01*
G01X39687Y28633D02*
G01X39687Y27904D01*
G01X39687Y28633D02*
G01X39931Y28633D01*
G01X40035Y28597D01*
G01X40104Y28529D01*
G01X40139Y28460D01*
G01X40172Y28356D01*
G01X40172Y28181D01*
G01X40139Y28079D01*
G01X40104Y28008D01*
G01X40035Y27940D01*
G01X39931Y27904D01*
G01X39687Y27904D01*
G01X38227Y26093D02*
G01X38227Y25364D01*
G01X38227Y26093D02*
G01X38468Y26093D01*
G01X38572Y26057D01*
G01X38643Y25989D01*
G01X38676Y25920D01*
G01X38712Y25816D01*
G01X38712Y25641D01*
G01X38676Y25539D01*
G01X38643Y25468D01*
G01X38572Y25400D01*
G01X38468Y25364D01*
G01X38227Y25364D01*
G01X39286Y26093D02*
G01X38940Y25608D01*
G01X39458Y25608D01*
G01X39286Y26093D02*
G01X39286Y25364D01*
G01X38227Y23553D02*
G01X38227Y22824D01*
G01X38227Y23553D02*
G01X38468Y23553D01*
G01X38572Y23517D01*
G01X38643Y23449D01*
G01X38676Y23380D01*
G01X38712Y23276D01*
G01X38712Y23101D01*
G01X38676Y22999D01*
G01X38643Y22928D01*
G01X38572Y22860D01*
G01X38468Y22824D01*
G01X38227Y22824D01*
G01X39009Y23553D02*
G01X39390Y23553D01*
G01X39182Y23276D01*
G01X39286Y23276D01*
G01X39357Y23241D01*
G01X39390Y23205D01*
G01X39425Y23101D01*
G01X39425Y23032D01*
G01X39390Y22928D01*
G01X39321Y22860D01*
G01X39217Y22824D01*
G01X39113Y22824D01*
G01X39009Y22860D01*
G01X38976Y22895D01*
G01X38940Y22964D01*
G01X38227Y21013D02*
G01X38227Y20284D01*
G01X38227Y21013D02*
G01X38468Y21013D01*
G01X38572Y20977D01*
G01X38643Y20909D01*
G01X38676Y20840D01*
G01X38712Y20736D01*
G01X38712Y20561D01*
G01X38676Y20459D01*
G01X38643Y20388D01*
G01X38572Y20320D01*
G01X38468Y20284D01*
G01X38227Y20284D01*
G01X38976Y20840D02*
G01X38976Y20873D01*
G01X39009Y20942D01*
G01X39044Y20977D01*
G01X39113Y21013D01*
G01X39253Y21013D01*
G01X39321Y20977D01*
G01X39357Y20942D01*
G01X39390Y20873D01*
G01X39390Y20805D01*
G01X39357Y20736D01*
G01X39286Y20632D01*
G01X38940Y20284D01*
G01X39425Y20284D01*
G01X38227Y18473D02*
G01X38227Y17744D01*
G01X38227Y18473D02*
G01X38468Y18473D01*
G01X38572Y18437D01*
G01X38643Y18369D01*
G01X38676Y18300D01*
G01X38712Y18196D01*
G01X38712Y18021D01*
G01X38676Y17919D01*
G01X38643Y17848D01*
G01X38572Y17780D01*
G01X38468Y17744D01*
G01X38227Y17744D01*
G01X38940Y18333D02*
G01X39009Y18369D01*
G01X39113Y18473D01*
G01X39113Y17744D01*
G01X38227Y15933D02*
G01X38227Y15204D01*
G01X38227Y15933D02*
G01X38539Y15933D01*
G01X38643Y15897D01*
G01X38676Y15862D01*
G01X38712Y15793D01*
G01X38712Y15725D01*
G01X38676Y15656D01*
G01X38643Y15621D01*
G01X38539Y15585D01*
G01X38227Y15585D01*
G01X38468Y15585D02*
G01X38712Y15204D01*
G01X38940Y15933D02*
G01X39425Y15204D01*
G01X39425Y15933D02*
G01X38940Y15204D01*
G01X38468Y13393D02*
G01X38468Y12664D01*
G01X38227Y13393D02*
G01X38712Y13393D01*
G01X38940Y13393D02*
G01X39425Y12664D01*
G01X39425Y13393D02*
G01X38940Y12664D01*
G01X14744Y41081D02*
G01X14224Y40355D01*
G01X15003Y40355D01*
G01X14744Y41081D02*
G01X14744Y39992D01*
G01X16073Y41081D02*
G01X15554Y39992D01*
G01X15346Y41081D02*
G01X16073Y41081D01*
G01X16728Y41081D02*
G01X16573Y41031D01*
G01X16469Y40873D01*
G01X16416Y40614D01*
G01X16416Y40459D01*
G01X16469Y40198D01*
G01X16573Y40043D01*
G01X16728Y39992D01*
G01X16832Y39992D01*
G01X16987Y40043D01*
G01X17091Y40198D01*
G01X17145Y40459D01*
G01X17145Y40614D01*
G01X17091Y40873D01*
G01X16987Y41031D01*
G01X16832Y41081D01*
G01X16728Y41081D01*
G01X10541Y49590D02*
G01X10541Y48501D01*
G01X10541Y49590D02*
G01X10957Y48501D01*
G01X11371Y49590D02*
G01X10957Y48501D01*
G01X11371Y49590D02*
G01X11371Y48501D01*
G01X12131Y49590D02*
G01X11714Y48501D01*
G01X12131Y49590D02*
G01X12547Y48501D01*
G01X11871Y48864D02*
G01X12390Y48864D01*
G01X13253Y49590D02*
G01X13253Y48501D01*
G01X12890Y49590D02*
G01X13616Y49590D01*
G01X13959Y49590D02*
G01X13959Y48501D01*
G01X13959Y49590D02*
G01X14427Y49590D01*
G01X14582Y49540D01*
G01X14635Y49486D01*
G01X14686Y49382D01*
G01X14686Y49278D01*
G01X14635Y49174D01*
G01X14582Y49123D01*
G01X14427Y49072D01*
G01X13959Y49072D01*
G01X14323Y49072D02*
G01X14686Y48501D01*
G01X15029Y49590D02*
G01X15029Y48501D01*
G01X15372Y49590D02*
G01X16101Y48501D01*
G01X16101Y49590D02*
G01X15372Y48501D01*
G01X16443Y49590D02*
G01X16443Y48501D01*
G01X16443Y48501D02*
G01X17066Y48501D01*
G01X17409Y49590D02*
G01X17409Y48501D01*
G01X17409Y49590D02*
G01X18084Y49590D01*
G01X17409Y49072D02*
G01X17825Y49072D01*
G01X17409Y48501D02*
G01X18084Y48501D01*
G01X18427Y49590D02*
G01X18427Y48501D01*
G01X18427Y49590D02*
G01X18790Y49590D01*
G01X18948Y49540D01*
G01X19050Y49436D01*
G01X19103Y49331D01*
G01X19154Y49174D01*
G01X19154Y48915D01*
G01X19103Y48760D01*
G01X19050Y48656D01*
G01X18948Y48552D01*
G01X18790Y48501D01*
G01X18427Y48501D01*
G01X19497Y49382D02*
G01X19601Y49436D01*
G01X19758Y49590D01*
G01X19758Y48501D01*
G01X81788Y51003D02*
G01X82877Y51003D01*
G01X81788Y51003D02*
G01X81788Y51470D01*
G01X81838Y51625D01*
G01X81892Y51678D01*
G01X81996Y51729D01*
G01X82100Y51729D01*
G01X82204Y51678D01*
G01X82255Y51625D01*
G01X82306Y51470D01*
G01X82306Y51003D01*
G01X82306Y51366D02*
G01X82877Y51729D01*
G01X81788Y52072D02*
G01X82877Y52072D01*
G01X81788Y52072D02*
G01X81788Y52748D01*
G01X82306Y52072D02*
G01X82306Y52489D01*
G01X82877Y52072D02*
G01X82877Y52748D01*
G01X81788Y53091D02*
G01X82877Y53091D01*
G01X82877Y53091D02*
G01X82877Y53715D01*
G01X81788Y54472D02*
G01X82877Y54058D01*
G01X81788Y54472D02*
G01X82877Y54889D01*
G01X82514Y54213D02*
G01X82514Y54734D01*
G01X81788Y55232D02*
G01X82306Y55648D01*
G01X82877Y55648D01*
G01X81788Y56062D02*
G01X82306Y55648D01*
G01X83243Y56405D02*
G01X83243Y57340D01*
G01X81942Y58412D02*
G01X81838Y58308D01*
G01X81788Y58153D01*
G01X81788Y57945D01*
G01X81838Y57787D01*
G01X81942Y57683D01*
G01X82047Y57683D01*
G01X82151Y57736D01*
G01X82204Y57787D01*
G01X82255Y57891D01*
G01X82359Y58204D01*
G01X82410Y58308D01*
G01X82463Y58359D01*
G01X82567Y58412D01*
G01X82722Y58412D01*
G01X82826Y58308D01*
G01X82877Y58153D01*
G01X82877Y57945D01*
G01X82826Y57787D01*
G01X82722Y57683D01*
G01X81788Y58755D02*
G01X82877Y59014D01*
G01X81788Y59273D02*
G01X82877Y59014D01*
G01X81788Y59273D02*
G01X82877Y59535D01*
G01X81788Y59794D02*
G01X82877Y59535D01*
G01X81788Y60137D02*
G01X82877Y60137D01*
G01X81788Y60843D02*
G01X82877Y60843D01*
G01X81788Y60479D02*
G01X81788Y61206D01*
G01X82047Y62329D02*
G01X81942Y62278D01*
G01X81838Y62174D01*
G01X81788Y62069D01*
G01X81788Y61861D01*
G01X81838Y61757D01*
G01X81942Y61653D01*
G01X82047Y61602D01*
G01X82204Y61549D01*
G01X82463Y61549D01*
G01X82618Y61602D01*
G01X82722Y61653D01*
G01X82826Y61757D01*
G01X82877Y61861D01*
G01X82877Y62069D01*
G01X82826Y62174D01*
G01X82722Y62278D01*
G01X82618Y62329D01*
G01X81788Y62671D02*
G01X82877Y62671D01*
G01X81788Y63398D02*
G01X82877Y63398D01*
G01X82306Y62671D02*
G01X82306Y63398D01*
G54D10*
G75*
G01X15364Y27927D02*
G03X15293Y27927I-35J4000D01*
G01*
G75*
G01X15116Y21196D02*
G03X15187Y21196I35J-4000D01*
G01*
G75*
G01X67659Y7039D02*
G02X64659Y4039I-3000J0D01*
G01*
G75*
G01X40659Y7039D02*
G03X43659Y4039I3000J0D01*
G01*
G36*
G01X85598Y50723D02*
G01X95377Y50723D01*
G01X95377Y22910D01*
G01X85598Y22910D01*
G01X85598Y50723D01*
G37*

%LPD*%
G36*
G01X12616Y28927D02*
G01X12616Y34927D01*
G01X12552Y34858D01*
G01X12489Y34788D01*
G01X12428Y34716D01*
G01X12368Y34642D01*
G01X12310Y34568D01*
G01X12253Y34492D01*
G01X12198Y34415D01*
G01X12145Y34337D01*
G01X12093Y34258D01*
G01X12043Y34177D01*
G01X11995Y34096D01*
G01X11949Y34013D01*
G01X11905Y33930D01*
G01X11862Y33845D01*
G01X11821Y33760D01*
G01X11782Y33674D01*
G01X11745Y33587D01*
G01X11710Y33499D01*
G01X11677Y33410D01*
G01X11646Y33321D01*
G01X11616Y33231D01*
G01X11589Y33141D01*
G01X11564Y33049D01*
G01X11540Y32958D01*
G01X11519Y32866D01*
G01X11500Y32773D01*
G01X11482Y32680D01*
G01X11467Y32587D01*
G01X11453Y32493D01*
G01X11442Y32399D01*
G01X11433Y32305D01*
G01X11426Y32211D01*
G01X11421Y32116D01*
G01X11418Y32022D01*
G01X11416Y31927D01*
G01X11418Y31833D01*
G01X11421Y31738D01*
G01X11426Y31644D01*
G01X11433Y31549D01*
G01X11442Y31455D01*
G01X11453Y31361D01*
G01X11467Y31268D01*
G01X11482Y31174D01*
G01X11500Y31081D01*
G01X11519Y30989D01*
G01X11540Y30897D01*
G01X11564Y30805D01*
G01X11589Y30714D01*
G01X11616Y30623D01*
G01X11646Y30534D01*
G01X11677Y30444D01*
G01X11710Y30356D01*
G01X11745Y30268D01*
G01X11782Y30181D01*
G01X11821Y30095D01*
G01X11862Y30009D01*
G01X11905Y29925D01*
G01X11949Y29841D01*
G01X11995Y29759D01*
G01X12043Y29677D01*
G01X12093Y29597D01*
G01X12145Y29518D01*
G01X12198Y29440D01*
G01X12253Y29363D01*
G01X12310Y29287D01*
G01X12368Y29212D01*
G01X12428Y29139D01*
G01X12489Y29067D01*
G01X12552Y28997D01*
G01X12616Y28927D01*
G37*

%LPD*%
G36*
G01X17927Y20126D02*
G01X17863Y20195D01*
G01X17863Y14195D01*
G01X17927Y14265D01*
G01X17990Y14335D01*
G01X18051Y14407D01*
G01X18111Y14480D01*
G01X18169Y14555D01*
G01X18226Y14631D01*
G01X18281Y14708D01*
G01X18334Y14786D01*
G01X18386Y14865D01*
G01X18436Y14945D01*
G01X18484Y15027D01*
G01X18530Y15109D01*
G01X18574Y15193D01*
G01X18617Y15277D01*
G01X18658Y15363D01*
G01X18697Y15449D01*
G01X18734Y15536D01*
G01X18769Y15624D01*
G01X18802Y15712D01*
G01X18833Y15802D01*
G01X18863Y15891D01*
G01X18890Y15982D01*
G01X18915Y16073D01*
G01X18939Y16165D01*
G01X18960Y16257D01*
G01X18979Y16349D01*
G01X18997Y16442D01*
G01X19012Y16536D01*
G01X19026Y16629D01*
G01X19037Y16723D01*
G01X19046Y16817D01*
G01X19053Y16912D01*
G01X19058Y17006D01*
G01X19061Y17101D01*
G01X19063Y17195D01*
G01X19061Y17290D01*
G01X19058Y17384D01*
G01X19053Y17479D01*
G01X19046Y17573D01*
G01X19037Y17667D01*
G01X19026Y17761D01*
G01X19012Y17855D01*
G01X18997Y17948D01*
G01X18979Y18041D01*
G01X18960Y18134D01*
G01X18939Y18226D01*
G01X18915Y18317D01*
G01X18890Y18409D01*
G01X18863Y18499D01*
G01X18833Y18589D01*
G01X18802Y18678D01*
G01X18769Y18767D01*
G01X18734Y18855D01*
G01X18697Y18942D01*
G01X18658Y19028D01*
G01X18617Y19113D01*
G01X18574Y19198D01*
G01X18530Y19281D01*
G01X18484Y19364D01*
G01X18436Y19445D01*
G01X18386Y19526D01*
G01X18334Y19605D01*
G01X18281Y19683D01*
G01X18226Y19760D01*
G01X18169Y19836D01*
G01X18111Y19910D01*
G01X18051Y19984D01*
G01X17990Y20056D01*
G01X17927Y20126D01*
G37*
M00*
M02*
