;Layer: Drill PTH
;EasyEDA v6.3.53, 2020-08-15T11:31:24+02:00
;10
;Gerber Generator version 0.2
M48
METRIC,LZ,000.000
;Holesize 1 = 0.798 METRIC
T01C0.798
;Holesize 2 = 0.901 METRIC
T02C0.901
;Holesize 3 = 0.915 METRIC
T03C0.915
;Holesize 4 = 1.000 METRIC
T04C1.000
;Holesize 5 = 1.021 METRIC
T05C1.021
;Holesize 6 = 1.200 METRIC
T06C1.200
%
G05
G90
T01
X+065659Y+031038
X+065659Y+028498
X+065659Y+025958
X+065659Y+023418
X+065659Y+020878
X+065659Y+018338
X+065659Y+015798
X+065659Y+013258
X+042799Y+031038
X+042799Y+028498
X+042799Y+025958
X+042799Y+023418
X+042799Y+020878
X+042799Y+018338
X+042799Y+015798
X+042799Y+013258
T02
X+016225Y+010062G85X+014026Y+010062
X+014026Y+004262G85X+016225Y+004262
X+019926Y+006833G85X+019926Y+008535
T03
X+035687Y+031038
X+035687Y+028498
X+035687Y+025958
X+035687Y+023418
X+035687Y+020878
X+035687Y+018338
X+035687Y+015798
X+035687Y+013258
X+072898Y+013258
X+072898Y+015798
X+072898Y+018338
X+072898Y+020878
X+072898Y+023418
X+072898Y+025958
X+072898Y+028498
X+072898Y+031038
X+086741Y+057073
X+089281Y+057073
X+091821Y+057073
X+094361Y+057073
T04
X+006350Y+027327
X+006350Y+036527
X+006350Y+021795
X+006350Y+012595
X+013616Y+031927
X+017117Y+031927
X+016863Y+017195
X+013362Y+017195
T05
X+094742Y+013131
X+092202Y+013131
X+089662Y+013131
X+087122Y+013131
X+084582Y+013131
T06
X+028575Y+014274
X+026035Y+014274
X+028575Y+005003
X+026035Y+005003
X+028575Y+023672
X+026035Y+023672
X+028575Y+033324
X+026035Y+033324
X+009121Y+040436
X+022120Y+040436
X+017653Y+054406
X+015113Y+054406
X+012573Y+054406
X+076327Y+059486
X+076327Y+056946
X+076327Y+054406
M30
